STARTFONT 2.1
FONT -FontForge-Lucida Grande-Bold-R-Normal--12-120-75-75-P-74-ISO10646-1
SIZE 12 75 75
FONTBOUNDINGBOX 14 16 -1 -3
COMMENT "Generated by fontforge, http://fontforge.sourceforge.net"
COMMENT "Copyright 1997 Bigelow & Holmes Inc. U.S. Pat. Des. 289,420. All rights reserved."
STARTPROPERTIES 39
FOUNDRY "FontForge"
FAMILY_NAME "Lucida Grande"
WEIGHT_NAME "Bold"
SLANT "R"
SETWIDTH_NAME "Normal"
ADD_STYLE_NAME ""
PIXEL_SIZE 12
POINT_SIZE 120
RESOLUTION_X 75
RESOLUTION_Y 75
SPACING "P"
AVERAGE_WIDTH 74
CHARSET_REGISTRY "ISO10646"
CHARSET_ENCODING "1"
FONTNAME_REGISTRY ""
CHARSET_COLLECTIONS "ISO8859-2 ISO8859-5 ISO8859-7 ISO8859-9 ISO8859-4 ISO10646-1"
FONT_NAME "LucidaGrande-Bold"
FACE_NAME "Lucida Grande Bold"
COPYRIGHT "Copyright 1997 Bigelow & Holmes Inc. U.S. Pat. Des. 289,420. All rights reserved."
FONT_VERSION "0.45.1"
FONT_ASCENT 10
FONT_DESCENT 2
UNDERLINE_POSITION -1
UNDERLINE_THICKNESS 1
X_HEIGHT 6
CAP_HEIGHT 8
RAW_ASCENT 799
RAW_DESCENT 200
NORM_SPACE 4
RELATIVE_WEIGHT 70
RELATIVE_SETWIDTH 50
SUPERSCRIPT_X 0
SUPERSCRIPT_Y 1
SUPERSCRIPT_SIZE 1
SUBSCRIPT_X 0
SUBSCRIPT_Y 1
SUBSCRIPT_SIZE 1
AVG_LOWERCASE_WIDTH 72
AVG_UPPERCASE_WIDTH 81
ENDPROPERTIES
CHARS 497
STARTCHAR space
ENCODING 32
SWIDTH 318 0
DWIDTH 4 0
BBX 1 1 0 0
BITMAP
00
ENDCHAR
STARTCHAR exclam
ENCODING 33
SWIDTH 313 0
DWIDTH 4 0
BBX 2 9 1 0
BITMAP
C0
C0
C0
C0
C0
C0
00
C0
C0
ENDCHAR
STARTCHAR quotedbl
ENCODING 34
SWIDTH 451 0
DWIDTH 5 0
BBX 5 3 0 6
BITMAP
D8
D8
D8
ENDCHAR
STARTCHAR numbersign
ENCODING 35
SWIDTH 638 0
DWIDTH 8 0
BBX 7 9 0 0
BITMAP
14
14
7E
28
28
FC
28
50
50
ENDCHAR
STARTCHAR dollar
ENCODING 36
SWIDTH 638 0
DWIDTH 7 0
BBX 5 11 1 -1
BITMAP
10
78
D0
D0
F0
70
78
58
58
F0
40
ENDCHAR
STARTCHAR percent
ENCODING 37
SWIDTH 783 0
DWIDTH 9 0
BBX 9 9 0 0
BITMAP
6080
9100
9200
6400
0800
1300
1480
2480
4300
ENDCHAR
STARTCHAR ampersand
ENCODING 38
SWIDTH 744 0
DWIDTH 9 0
BBX 9 9 0 0
BITMAP
1C00
3600
3600
1C00
6980
CD80
C700
E300
3D80
ENDCHAR
STARTCHAR quotesingle
ENCODING 39
SWIDTH 247 0
DWIDTH 3 0
BBX 2 4 0 5
BITMAP
C0
C0
C0
C0
ENDCHAR
STARTCHAR parenleft
ENCODING 40
SWIDTH 370 0
DWIDTH 4 0
BBX 3 11 1 -2
BITMAP
20
60
C0
C0
C0
C0
C0
C0
C0
60
20
ENDCHAR
STARTCHAR parenright
ENCODING 41
SWIDTH 370 0
DWIDTH 4 0
BBX 3 11 1 -2
BITMAP
80
C0
60
60
60
60
60
60
60
C0
80
ENDCHAR
STARTCHAR asterisk
ENCODING 42
SWIDTH 466 0
DWIDTH 6 0
BBX 5 5 0 4
BITMAP
20
A8
50
50
50
ENDCHAR
STARTCHAR plus
ENCODING 43
SWIDTH 795 0
DWIDTH 7 0
BBX 7 7 0 0
BITMAP
10
10
10
FE
10
10
10
ENDCHAR
STARTCHAR comma
ENCODING 44
SWIDTH 247 0
DWIDTH 3 0
BBX 2 4 0 -2
BITMAP
C0
C0
40
80
ENDCHAR
STARTCHAR hyphen
ENCODING 45
SWIDTH 578 0
DWIDTH 7 0
BBX 5 1 1 3
BITMAP
F8
ENDCHAR
STARTCHAR period
ENCODING 46
SWIDTH 247 0
DWIDTH 3 0
BBX 2 2 0 0
BITMAP
C0
C0
ENDCHAR
STARTCHAR slash
ENCODING 47
SWIDTH 565 0
DWIDTH 7 0
BBX 5 11 1 -2
BITMAP
08
08
10
10
20
20
20
40
40
80
80
ENDCHAR
STARTCHAR zero
ENCODING 48
SWIDTH 638 0
DWIDTH 8 0
BBX 6 9 1 0
BITMAP
78
CC
CC
CC
CC
CC
CC
CC
78
ENDCHAR
STARTCHAR one
ENCODING 49
SWIDTH 638 0
DWIDTH 8 0
BBX 6 9 1 0
BITMAP
30
F0
30
30
30
30
30
30
FC
ENDCHAR
STARTCHAR two
ENCODING 50
SWIDTH 638 0
DWIDTH 8 0
BBX 6 9 1 0
BITMAP
F8
0C
0C
0C
18
30
60
C0
FC
ENDCHAR
STARTCHAR three
ENCODING 51
SWIDTH 638 0
DWIDTH 8 0
BBX 6 9 1 0
BITMAP
F8
0C
0C
0C
78
0C
0C
0C
F8
ENDCHAR
STARTCHAR four
ENCODING 52
SWIDTH 638 0
DWIDTH 8 0
BBX 7 9 0 0
BITMAP
1C
3C
3C
6C
6C
CC
FE
0C
0C
ENDCHAR
STARTCHAR five
ENCODING 53
SWIDTH 638 0
DWIDTH 8 0
BBX 6 9 1 0
BITMAP
FC
C0
C0
F8
0C
0C
0C
0C
F8
ENDCHAR
STARTCHAR six
ENCODING 54
SWIDTH 638 0
DWIDTH 8 0
BBX 6 9 1 0
BITMAP
38
64
C0
F8
CC
CC
CC
CC
78
ENDCHAR
STARTCHAR seven
ENCODING 55
SWIDTH 638 0
DWIDTH 8 0
BBX 6 9 1 0
BITMAP
FC
0C
08
18
10
30
60
60
60
ENDCHAR
STARTCHAR eight
ENCODING 56
SWIDTH 638 0
DWIDTH 8 0
BBX 6 9 1 0
BITMAP
78
CC
CC
FC
78
DC
CC
CC
78
ENDCHAR
STARTCHAR nine
ENCODING 57
SWIDTH 638 0
DWIDTH 8 0
BBX 6 9 1 0
BITMAP
78
CC
CC
CC
CC
7C
0C
18
F0
ENDCHAR
STARTCHAR colon
ENCODING 58
SWIDTH 247 0
DWIDTH 3 0
BBX 2 7 0 0
BITMAP
C0
C0
00
00
00
C0
C0
ENDCHAR
STARTCHAR semicolon
ENCODING 59
SWIDTH 247 0
DWIDTH 3 0
BBX 2 9 0 -2
BITMAP
C0
C0
00
00
00
C0
C0
40
80
ENDCHAR
STARTCHAR less
ENCODING 60
SWIDTH 795 0
DWIDTH 6 0
BBX 6 7 0 0
BITMAP
04
18
20
C0
20
18
04
ENDCHAR
STARTCHAR equal
ENCODING 61
SWIDTH 795 0
DWIDTH 10 0
BBX 7 3 1 2
BITMAP
FE
00
FE
ENDCHAR
STARTCHAR greater
ENCODING 62
SWIDTH 795 0
DWIDTH 6 0
BBX 6 7 0 0
BITMAP
80
60
10
0C
10
60
80
ENDCHAR
STARTCHAR question
ENCODING 63
SWIDTH 497 0
DWIDTH 6 0
BBX 5 9 0 0
BITMAP
70
98
18
30
60
60
00
60
60
ENDCHAR
STARTCHAR at
ENCODING 64
SWIDTH 844 0
DWIDTH 10 0
BBX 9 9 0 0
BITMAP
1E00
2100
4C80
9480
A480
AC80
B700
4000
3C00
ENDCHAR
STARTCHAR A
ENCODING 65
SWIDTH 736 0
DWIDTH 8 0
BBX 6 9 1 0
BITMAP
30
30
58
58
58
78
8C
8C
8C
ENDCHAR
STARTCHAR B
ENCODING 66
SWIDTH 629 0
DWIDTH 8 0
BBX 6 9 1 0
BITMAP
F8
CC
CC
CC
F8
CC
CC
CC
F8
ENDCHAR
STARTCHAR C
ENCODING 67
SWIDTH 712 0
DWIDTH 8 0
BBX 6 9 1 0
BITMAP
3C
60
C0
C0
C0
C0
C0
60
3C
ENDCHAR
STARTCHAR D
ENCODING 68
SWIDTH 792 0
DWIDTH 8 0
BBX 6 9 1 0
BITMAP
F0
D8
CC
CC
CC
CC
CC
D8
F0
ENDCHAR
STARTCHAR E
ENCODING 69
SWIDTH 600 0
DWIDTH 7 0
BBX 5 9 1 0
BITMAP
F8
C0
C0
C0
F0
C0
C0
C0
F8
ENDCHAR
STARTCHAR F
ENCODING 70
SWIDTH 574 0
DWIDTH 7 0
BBX 5 9 1 0
BITMAP
F8
C0
C0
C0
F0
C0
C0
C0
C0
ENDCHAR
STARTCHAR G
ENCODING 71
SWIDTH 745 0
DWIDTH 8 0
BBX 6 9 1 0
BITMAP
3C
60
C0
C0
C0
CC
CC
6C
3C
ENDCHAR
STARTCHAR H
ENCODING 72
SWIDTH 780 0
DWIDTH 8 0
BBX 6 9 1 0
BITMAP
CC
CC
CC
CC
FC
CC
CC
CC
CC
ENDCHAR
STARTCHAR I
ENCODING 73
SWIDTH 331 0
DWIDTH 4 0
BBX 2 9 1 0
BITMAP
C0
C0
C0
C0
C0
C0
C0
C0
C0
ENDCHAR
STARTCHAR J
ENCODING 74
SWIDTH 418 0
DWIDTH 5 0
BBX 5 11 -1 -2
BITMAP
18
18
18
18
18
18
18
18
18
18
F0
ENDCHAR
STARTCHAR K
ENCODING 75
SWIDTH 709 0
DWIDTH 9 0
BBX 7 9 1 0
BITMAP
C2
C4
C8
D0
F0
D8
CC
CC
C6
ENDCHAR
STARTCHAR L
ENCODING 76
SWIDTH 581 0
DWIDTH 7 0
BBX 5 9 1 0
BITMAP
C0
C0
C0
C0
C0
C0
C0
C0
F8
ENDCHAR
STARTCHAR M
ENCODING 77
SWIDTH 907 0
DWIDTH 11 0
BBX 9 9 1 0
BITMAP
C180
E380
E380
B580
B580
B580
9980
9980
8180
ENDCHAR
STARTCHAR N
ENCODING 78
SWIDTH 768 0
DWIDTH 9 0
BBX 7 9 1 0
BITMAP
82
C2
E2
B2
B2
9A
8E
86
82
ENDCHAR
STARTCHAR O
ENCODING 79
SWIDTH 823 0
DWIDTH 8 0
BBX 6 9 1 0
BITMAP
78
CC
CC
CC
CC
CC
CC
CC
78
ENDCHAR
STARTCHAR P
ENCODING 80
SWIDTH 613 0
DWIDTH 8 0
BBX 6 9 1 0
BITMAP
F8
CC
CC
CC
CC
F8
C0
C0
C0
ENDCHAR
STARTCHAR Q
ENCODING 81
SWIDTH 823 0
DWIDTH 8 0
BBX 7 11 1 -2
BITMAP
78
CC
CC
CC
CC
CC
CC
CC
78
08
06
ENDCHAR
STARTCHAR R
ENCODING 82
SWIDTH 689 0
DWIDTH 8 0
BBX 6 9 1 0
BITMAP
F8
CC
CC
CC
F8
D8
D8
CC
CC
ENDCHAR
STARTCHAR S
ENCODING 83
SWIDTH 571 0
DWIDTH 7 0
BBX 5 9 1 0
BITMAP
78
C0
C0
E0
70
38
18
18
F0
ENDCHAR
STARTCHAR T
ENCODING 84
SWIDTH 689 0
DWIDTH 6 0
BBX 6 9 0 0
BITMAP
FC
30
30
30
30
30
30
30
30
ENDCHAR
STARTCHAR U
ENCODING 85
SWIDTH 736 0
DWIDTH 8 0
BBX 6 9 1 0
BITMAP
C4
C4
C4
C4
C4
C4
C4
C4
78
ENDCHAR
STARTCHAR V
ENCODING 86
SWIDTH 698 0
DWIDTH 8 0
BBX 6 9 1 0
BITMAP
C4
C4
C4
68
68
68
30
30
30
ENDCHAR
STARTCHAR W
ENCODING 87
SWIDTH 903 0
DWIDTH 11 0
BBX 9 9 1 0
BITMAP
CC80
CC80
CC80
D680
D680
D680
6300
6300
6300
ENDCHAR
STARTCHAR X
ENCODING 88
SWIDTH 666 0
DWIDTH 8 0
BBX 6 9 1 0
BITMAP
C4
C4
68
70
30
38
58
8C
8C
ENDCHAR
STARTCHAR Y
ENCODING 89
SWIDTH 686 0
DWIDTH 8 0
BBX 6 9 1 0
BITMAP
C4
C4
68
68
30
30
30
30
30
ENDCHAR
STARTCHAR Z
ENCODING 90
SWIDTH 644 0
DWIDTH 8 0
BBX 6 9 1 0
BITMAP
FC
0C
18
18
30
60
60
C0
FC
ENDCHAR
STARTCHAR bracketleft
ENCODING 91
SWIDTH 370 0
DWIDTH 4 0
BBX 3 11 1 -2
BITMAP
E0
C0
C0
C0
C0
C0
C0
C0
C0
C0
E0
ENDCHAR
STARTCHAR backslash
ENCODING 92
SWIDTH 565 0
DWIDTH 7 0
BBX 5 11 1 -2
BITMAP
80
80
40
40
20
20
20
10
10
08
08
ENDCHAR
STARTCHAR bracketright
ENCODING 93
SWIDTH 370 0
DWIDTH 4 0
BBX 3 11 0 -2
BITMAP
E0
60
60
60
60
60
60
60
60
60
E0
ENDCHAR
STARTCHAR asciicircum
ENCODING 94
SWIDTH 662 0
DWIDTH 8 0
BBX 7 7 1 2
BITMAP
10
10
28
28
44
44
82
ENDCHAR
STARTCHAR underscore
ENCODING 95
SWIDTH 500 0
DWIDTH 6 0
BBX 6 1 0 -1
BITMAP
FC
ENDCHAR
STARTCHAR grave
ENCODING 96
SWIDTH 638 0
DWIDTH 6 0
BBX 3 2 1 8
BITMAP
C0
60
ENDCHAR
STARTCHAR a
ENCODING 97
SWIDTH 587 0
DWIDTH 8 0
BBX 7 7 1 0
BITMAP
F8
0C
0C
7C
CC
CC
7E
ENDCHAR
STARTCHAR b
ENCODING 98
SWIDTH 662 0
DWIDTH 8 0
BBX 6 9 1 0
BITMAP
C0
C0
F8
CC
CC
CC
CC
CC
F8
ENDCHAR
STARTCHAR c
ENCODING 99
SWIDTH 532 0
DWIDTH 6 0
BBX 4 7 1 0
BITMAP
70
C0
C0
C0
C0
C0
70
ENDCHAR
STARTCHAR d
ENCODING 100
SWIDTH 662 0
DWIDTH 8 0
BBX 6 9 1 0
BITMAP
0C
0C
7C
CC
CC
CC
CC
CC
7C
ENDCHAR
STARTCHAR e
ENCODING 101
SWIDTH 585 0
DWIDTH 8 0
BBX 6 7 1 0
BITMAP
78
CC
CC
FC
C0
C0
7C
ENDCHAR
STARTCHAR f
ENCODING 102
SWIDTH 414 0
DWIDTH 5 0
BBX 5 9 0 0
BITMAP
78
60
F8
60
60
60
60
60
60
ENDCHAR
STARTCHAR g
ENCODING 103
SWIDTH 659 0
DWIDTH 8 0
BBX 6 9 1 -2
BITMAP
7C
CC
CC
CC
CC
CC
7C
0C
78
ENDCHAR
STARTCHAR h
ENCODING 104
SWIDTH 656 0
DWIDTH 8 0
BBX 6 9 1 0
BITMAP
C0
C0
D8
EC
CC
CC
CC
CC
CC
ENDCHAR
STARTCHAR i
ENCODING 105
SWIDTH 325 0
DWIDTH 4 0
BBX 2 9 1 0
BITMAP
C0
00
C0
C0
C0
C0
C0
C0
C0
ENDCHAR
STARTCHAR j
ENCODING 106
SWIDTH 333 0
DWIDTH 4 0
BBX 4 11 -1 -2
BITMAP
30
00
30
30
30
30
30
30
30
30
E0
ENDCHAR
STARTCHAR k
ENCODING 107
SWIDTH 632 0
DWIDTH 8 0
BBX 7 9 1 0
BITMAP
C0
C0
C4
C8
D0
F0
D8
CC
C6
ENDCHAR
STARTCHAR l
ENCODING 108
SWIDTH 325 0
DWIDTH 4 0
BBX 2 9 1 0
BITMAP
C0
C0
C0
C0
C0
C0
C0
C0
C0
ENDCHAR
STARTCHAR m
ENCODING 109
SWIDTH 969 0
DWIDTH 12 0
BBX 10 7 1 0
BITMAP
DD80
EEC0
CCC0
CCC0
CCC0
CCC0
CCC0
ENDCHAR
STARTCHAR n
ENCODING 110
SWIDTH 656 0
DWIDTH 8 0
BBX 6 7 1 0
BITMAP
D8
EC
CC
CC
CC
CC
CC
ENDCHAR
STARTCHAR o
ENCODING 111
SWIDTH 638 0
DWIDTH 8 0
BBX 6 7 1 0
BITMAP
78
CC
CC
CC
CC
CC
78
ENDCHAR
STARTCHAR p
ENCODING 112
SWIDTH 662 0
DWIDTH 8 0
BBX 6 9 1 -2
BITMAP
F8
CC
CC
CC
CC
CC
F8
C0
C0
ENDCHAR
STARTCHAR q
ENCODING 113
SWIDTH 662 0
DWIDTH 8 0
BBX 6 9 1 -2
BITMAP
7C
CC
CC
CC
CC
CC
7C
0C
0C
ENDCHAR
STARTCHAR r
ENCODING 114
SWIDTH 454 0
DWIDTH 6 0
BBX 4 7 1 0
BITMAP
F0
C0
C0
C0
C0
C0
C0
ENDCHAR
STARTCHAR s
ENCODING 115
SWIDTH 565 0
DWIDTH 7 0
BBX 5 7 1 0
BITMAP
78
C0
E0
70
38
18
F0
ENDCHAR
STARTCHAR t
ENCODING 116
SWIDTH 405 0
DWIDTH 5 0
BBX 5 8 0 0
BITMAP
60
F0
60
60
60
60
60
38
ENDCHAR
STARTCHAR u
ENCODING 117
SWIDTH 656 0
DWIDTH 8 0
BBX 6 7 1 0
BITMAP
CC
CC
CC
CC
CC
DC
6C
ENDCHAR
STARTCHAR v
ENCODING 118
SWIDTH 593 0
DWIDTH 7 0
BBX 6 7 0 0
BITMAP
C4
C4
68
68
68
30
30
ENDCHAR
STARTCHAR w
ENCODING 119
SWIDTH 862 0
DWIDTH 11 0
BBX 10 7 0 0
BITMAP
C440
C440
6E80
6E80
6A80
3300
3300
ENDCHAR
STARTCHAR x
ENCODING 120
SWIDTH 590 0
DWIDTH 7 0
BBX 6 7 0 0
BITMAP
C4
68
70
30
38
58
8C
ENDCHAR
STARTCHAR y
ENCODING 121
SWIDTH 583 0
DWIDTH 7 0
BBX 6 9 0 -2
BITMAP
C4
C4
68
68
70
30
30
20
60
ENDCHAR
STARTCHAR z
ENCODING 122
SWIDTH 590 0
DWIDTH 7 0
BBX 5 7 1 0
BITMAP
F8
18
30
70
60
C0
F8
ENDCHAR
STARTCHAR braceleft
ENCODING 123
SWIDTH 370 0
DWIDTH 4 0
BBX 4 11 0 -2
BITMAP
30
60
60
60
60
C0
60
60
60
60
30
ENDCHAR
STARTCHAR bar
ENCODING 124
SWIDTH 385 0
DWIDTH 5 0
BBX 1 11 2 -2
BITMAP
80
80
80
80
80
80
80
80
80
80
80
ENDCHAR
STARTCHAR braceright
ENCODING 125
SWIDTH 370 0
DWIDTH 4 0
BBX 4 11 0 -2
BITMAP
C0
60
60
60
60
30
60
60
60
60
C0
ENDCHAR
STARTCHAR asciitilde
ENCODING 126
SWIDTH 638 0
DWIDTH 8 0
BBX 6 2 1 2
BITMAP
64
98
ENDCHAR
STARTCHAR quotesinglbase
ENCODING 130
SWIDTH 247 0
DWIDTH 3 0
BBX 2 4 0 -2
BITMAP
C0
C0
40
80
ENDCHAR
STARTCHAR florin
ENCODING 131
SWIDTH 638 0
DWIDTH 6 0
BBX 6 11 0 -2
BITMAP
1C
30
60
60
F0
60
60
60
C0
C0
C0
ENDCHAR
STARTCHAR quotedblbase
ENCODING 132
SWIDTH 451 0
DWIDTH 5 0
BBX 5 4 0 -2
BITMAP
D8
D8
48
90
ENDCHAR
STARTCHAR ellipsis
ENCODING 133
SWIDTH 1000 0
DWIDTH 12 0
BBX 10 2 1 0
BITMAP
CCC0
CCC0
ENDCHAR
STARTCHAR dagger
ENCODING 134
SWIDTH 638 0
DWIDTH 5 0
BBX 5 11 0 -2
BITMAP
20
20
20
F8
20
20
20
20
20
20
20
ENDCHAR
STARTCHAR daggerdbl
ENCODING 135
SWIDTH 638 0
DWIDTH 5 0
BBX 5 11 0 -2
BITMAP
20
20
20
F8
20
20
20
F8
20
20
20
ENDCHAR
STARTCHAR circumflex
ENCODING 136
SWIDTH 638 0
DWIDTH 6 0
BBX 5 2 0 8
BITMAP
70
D8
ENDCHAR
STARTCHAR perthousand
ENCODING 137
SWIDTH 1162 0
DWIDTH 14 0
BBX 13 9 0 0
BITMAP
6080
9100
9200
6400
0800
1330
14C8
24C8
4330
ENDCHAR
STARTCHAR Scaron
ENCODING 138
SWIDTH 571 0
DWIDTH 7 0
BBX 5 12 1 0
BITMAP
90
60
00
78
C0
C0
E0
70
38
18
18
F0
ENDCHAR
STARTCHAR guilsinglleft
ENCODING 139
SWIDTH 346 0
DWIDTH 4 0
BBX 3 5 0 1
BITMAP
20
40
80
40
20
ENDCHAR
STARTCHAR OE
ENCODING 140
SWIDTH 1059 0
DWIDTH 11 0
BBX 9 9 1 0
BITMAP
7F80
CC00
CC00
CC00
CF00
CC00
CC00
CC00
7F80
ENDCHAR
STARTCHAR quoteleft
ENCODING 145
SWIDTH 247 0
DWIDTH 3 0
BBX 2 4 0 5
BITMAP
40
80
C0
C0
ENDCHAR
STARTCHAR quoteright
ENCODING 146
SWIDTH 247 0
DWIDTH 3 0
BBX 2 4 0 5
BITMAP
C0
C0
40
80
ENDCHAR
STARTCHAR quotedblleft
ENCODING 147
SWIDTH 451 0
DWIDTH 5 0
BBX 5 4 0 5
BITMAP
48
90
D8
D8
ENDCHAR
STARTCHAR quotedblright
ENCODING 148
SWIDTH 451 0
DWIDTH 5 0
BBX 5 4 0 5
BITMAP
D8
D8
48
90
ENDCHAR
STARTCHAR bullet
ENCODING 149
SWIDTH 626 0
DWIDTH 7 0
BBX 5 5 1 1
BITMAP
70
F8
F8
F8
70
ENDCHAR
STARTCHAR endash
ENCODING 150
SWIDTH 500 0
DWIDTH 6 0
BBX 5 1 0 3
BITMAP
F8
ENDCHAR
STARTCHAR emdash
ENCODING 151
SWIDTH 1000 0
DWIDTH 10 0
BBX 9 1 0 3
BITMAP
FF80
ENDCHAR
STARTCHAR tilde
ENCODING 152
SWIDTH 638 0
DWIDTH 8 0
BBX 4 2 2 8
BITMAP
D0
B0
ENDCHAR
STARTCHAR trademark
ENCODING 153
SWIDTH 1000 0
DWIDTH 11 0
BBX 10 4 0 5
BITMAP
FC40
26C0
26C0
2540
ENDCHAR
STARTCHAR scaron
ENCODING 154
SWIDTH 565 0
DWIDTH 7 0
BBX 5 10 1 0
BITMAP
90
70
00
78
C0
E0
70
38
18
F0
ENDCHAR
STARTCHAR guilsinglright
ENCODING 155
SWIDTH 346 0
DWIDTH 4 0
BBX 3 5 0 1
BITMAP
80
40
20
40
80
ENDCHAR
STARTCHAR oe
ENCODING 156
SWIDTH 959 0
DWIDTH 12 0
BBX 10 7 1 0
BITMAP
7F80
CCC0
CCC0
CFC0
CC00
CE00
7FC0
ENDCHAR
STARTCHAR Ydieresis
ENCODING 159
SWIDTH 686 0
DWIDTH 8 0
BBX 6 11 1 0
BITMAP
50
00
C4
C4
68
68
30
30
30
30
30
ENDCHAR
STARTCHAR nonbreakingspace
ENCODING 160
SWIDTH 318 0
DWIDTH 4 0
BBX 1 1 0 0
BITMAP
00
ENDCHAR
STARTCHAR exclamdown
ENCODING 161
SWIDTH 313 0
DWIDTH 4 0
BBX 2 9 1 -2
BITMAP
C0
C0
00
C0
C0
C0
C0
C0
C0
ENDCHAR
STARTCHAR cent
ENCODING 162
SWIDTH 638 0
DWIDTH 7 0
BBX 5 9 1 0
BITMAP
10
78
D0
D0
D0
D0
D0
78
10
ENDCHAR
STARTCHAR sterling
ENCODING 163
SWIDTH 638 0
DWIDTH 8 0
BBX 6 9 1 0
BITMAP
3C
60
60
60
F0
60
60
40
FC
ENDCHAR
STARTCHAR currency
ENCODING 164
SWIDTH 638 0
DWIDTH 8 0
BBX 7 7 0 1
BITMAP
82
7C
44
44
44
7C
82
ENDCHAR
STARTCHAR yen
ENCODING 165
SWIDTH 638 0
DWIDTH 8 0
BBX 8 9 0 0
BITMAP
C1
62
34
18
7E
18
7E
18
18
ENDCHAR
STARTCHAR brokenbar
ENCODING 166
SWIDTH 385 0
DWIDTH 5 0
BBX 1 11 2 -2
BITMAP
80
80
80
80
80
00
80
80
80
80
80
ENDCHAR
STARTCHAR section
ENCODING 167
SWIDTH 638 0
DWIDTH 7 0
BBX 5 11 1 -2
BITMAP
78
C0
C0
70
D8
D8
D8
70
18
18
F0
ENDCHAR
STARTCHAR dieresis
ENCODING 168
SWIDTH 638 0
DWIDTH 6 0
BBX 3 1 1 8
BITMAP
A0
ENDCHAR
STARTCHAR copyright
ENCODING 169
SWIDTH 840 0
DWIDTH 10 0
BBX 8 9 1 0
BITMAP
3C
42
99
A1
A1
A1
99
42
3C
ENDCHAR
STARTCHAR ordfeminine
ENCODING 170
SWIDTH 481 0
DWIDTH 6 0
BBX 4 4 1 5
BITMAP
E0
10
F0
F0
ENDCHAR
STARTCHAR guillemotleft
ENCODING 171
SWIDTH 569 0
DWIDTH 7 0
BBX 5 5 1 1
BITMAP
28
50
A0
50
28
ENDCHAR
STARTCHAR logicalnot
ENCODING 172
SWIDTH 795 0
DWIDTH 7 0
BBX 6 3 0 2
BITMAP
FC
04
04
ENDCHAR
STARTCHAR uni00AD
ENCODING 173
SWIDTH 579 0
DWIDTH 7 0
BBX 5 1 1 3
BITMAP
F8
ENDCHAR
STARTCHAR registered
ENCODING 174
SWIDTH 840 0
DWIDTH 10 0
BBX 8 9 1 0
BITMAP
3C
42
B9
A5
B9
A9
A5
42
3C
ENDCHAR
STARTCHAR degree
ENCODING 176
SWIDTH 312 0
DWIDTH 4 0
BBX 3 3 1 6
BITMAP
40
A0
40
ENDCHAR
STARTCHAR plusminus
ENCODING 177
SWIDTH 795 0
DWIDTH 7 0
BBX 7 7 0 0
BITMAP
10
10
FE
10
10
00
FE
ENDCHAR
STARTCHAR twosuperior
ENCODING 178
SWIDTH 481 0
DWIDTH 6 0
BBX 4 5 1 4
BITMAP
E0
10
20
40
F0
ENDCHAR
STARTCHAR threesuperior
ENCODING 179
SWIDTH 481 0
DWIDTH 6 0
BBX 4 5 1 4
BITMAP
E0
10
60
10
E0
ENDCHAR
STARTCHAR acute
ENCODING 180
SWIDTH 638 0
DWIDTH 6 0
BBX 3 2 2 8
BITMAP
60
C0
ENDCHAR
STARTCHAR mu
ENCODING 181
SWIDTH 662 0
DWIDTH 8 0
BBX 6 9 1 -2
BITMAP
CC
CC
CC
CC
CC
DC
EC
C0
C0
ENDCHAR
STARTCHAR paragraph
ENCODING 182
SWIDTH 638 0
DWIDTH 8 0
BBX 5 10 1 -1
BITMAP
78
E8
E8
68
28
28
28
28
28
28
ENDCHAR
STARTCHAR cedilla
ENCODING 184
SWIDTH 638 0
DWIDTH 6 0
BBX 2 3 2 -3
BITMAP
80
40
80
ENDCHAR
STARTCHAR onesuperior
ENCODING 185
SWIDTH 481 0
DWIDTH 6 0
BBX 3 5 1 4
BITMAP
40
C0
40
40
E0
ENDCHAR
STARTCHAR ordmasculine
ENCODING 186
SWIDTH 481 0
DWIDTH 6 0
BBX 4 4 1 5
BITMAP
60
90
90
60
ENDCHAR
STARTCHAR guillemotright
ENCODING 187
SWIDTH 569 0
DWIDTH 7 0
BBX 5 5 1 1
BITMAP
A0
50
28
50
A0
ENDCHAR
STARTCHAR onequarter
ENCODING 188
SWIDTH 950 0
DWIDTH 11 0
BBX 9 9 1 0
BITMAP
4100
C200
4400
4400
4980
1280
1480
2780
4080
ENDCHAR
STARTCHAR onehalf
ENCODING 189
SWIDTH 950 0
DWIDTH 11 0
BBX 9 9 1 0
BITMAP
4200
C200
4400
4800
4B80
1080
2100
4200
4780
ENDCHAR
STARTCHAR threequarters
ENCODING 190
SWIDTH 950 0
DWIDTH 11 0
BBX 9 9 1 0
BITMAP
E100
2100
E200
2400
3580
CA80
1480
2780
2080
ENDCHAR
STARTCHAR questiondown
ENCODING 191
SWIDTH 497 0
DWIDTH 6 0
BBX 5 9 0 -2
BITMAP
30
30
00
30
30
60
C0
C8
70
ENDCHAR
STARTCHAR Agrave
ENCODING 192
SWIDTH 736 0
DWIDTH 9 0
BBX 6 12 1 0
BITMAP
20
10
00
30
30
58
58
58
78
8C
8C
8C
ENDCHAR
STARTCHAR Aacute
ENCODING 193
SWIDTH 736 0
DWIDTH 9 0
BBX 6 12 1 0
BITMAP
08
10
00
30
30
58
58
58
78
8C
8C
8C
ENDCHAR
STARTCHAR Acircumflex
ENCODING 194
SWIDTH 736 0
DWIDTH 9 0
BBX 6 12 1 0
BITMAP
30
48
00
30
30
58
58
58
78
8C
8C
8C
ENDCHAR
STARTCHAR Atilde
ENCODING 195
SWIDTH 736 0
DWIDTH 9 0
BBX 6 12 1 0
BITMAP
34
28
00
30
30
58
58
58
78
8C
8C
8C
ENDCHAR
STARTCHAR Adieresis
ENCODING 196
SWIDTH 736 0
DWIDTH 9 0
BBX 6 11 1 0
BITMAP
28
00
30
30
58
58
58
78
8C
8C
8C
ENDCHAR
STARTCHAR Aring
ENCODING 197
SWIDTH 736 0
DWIDTH 9 0
BBX 6 13 1 0
BITMAP
30
30
30
00
30
30
58
58
58
78
8C
8C
8C
ENDCHAR
STARTCHAR AE
ENCODING 198
SWIDTH 957 0
DWIDTH 11 0
BBX 9 9 1 0
BITMAP
0F80
1C00
1C00
2C00
2F00
4C00
7C00
4C00
8F80
ENDCHAR
STARTCHAR Ccedilla
ENCODING 199
SWIDTH 712 0
DWIDTH 9 0
BBX 6 12 1 -3
BITMAP
3C
60
C0
C0
C0
C0
C0
60
3C
10
08
10
ENDCHAR
STARTCHAR Egrave
ENCODING 200
SWIDTH 600 0
DWIDTH 7 0
BBX 5 12 1 0
BITMAP
60
30
00
F8
C0
C0
C0
F0
C0
C0
C0
F8
ENDCHAR
STARTCHAR Eacute
ENCODING 201
SWIDTH 600 0
DWIDTH 7 0
BBX 5 12 1 0
BITMAP
18
30
00
F8
C0
C0
C0
F0
C0
C0
C0
F8
ENDCHAR
STARTCHAR Ecircumflex
ENCODING 202
SWIDTH 600 0
DWIDTH 7 0
BBX 5 12 1 0
BITMAP
70
D8
00
F8
C0
C0
C0
F0
C0
C0
C0
F8
ENDCHAR
STARTCHAR Edieresis
ENCODING 203
SWIDTH 600 0
DWIDTH 7 0
BBX 5 11 1 0
BITMAP
50
00
F8
C0
C0
C0
F0
C0
C0
C0
F8
ENDCHAR
STARTCHAR Igrave
ENCODING 204
SWIDTH 331 0
DWIDTH 4 0
BBX 3 12 0 0
BITMAP
C0
60
00
60
60
60
60
60
60
60
60
60
ENDCHAR
STARTCHAR Iacute
ENCODING 205
SWIDTH 331 0
DWIDTH 4 0
BBX 3 12 1 0
BITMAP
60
C0
00
C0
C0
C0
C0
C0
C0
C0
C0
C0
ENDCHAR
STARTCHAR Icircumflex
ENCODING 206
SWIDTH 331 0
DWIDTH 4 0
BBX 4 12 1 0
BITMAP
E0
B0
00
C0
C0
C0
C0
C0
C0
C0
C0
C0
ENDCHAR
STARTCHAR Idieresis
ENCODING 207
SWIDTH 331 0
DWIDTH 4 0
BBX 3 11 1 0
BITMAP
A0
00
C0
C0
C0
C0
C0
C0
C0
C0
C0
ENDCHAR
STARTCHAR Eth
ENCODING 208
SWIDTH 792 0
DWIDTH 8 0
BBX 7 9 0 0
BITMAP
78
6C
66
66
F6
66
66
6C
78
ENDCHAR
STARTCHAR Ntilde
ENCODING 209
SWIDTH 768 0
DWIDTH 9 0
BBX 7 12 1 0
BITMAP
34
2C
00
82
C2
E2
B2
B2
9A
8E
86
82
ENDCHAR
STARTCHAR Ograve
ENCODING 210
SWIDTH 823 0
DWIDTH 10 0
BBX 6 12 1 0
BITMAP
60
30
00
78
CC
CC
CC
CC
CC
CC
CC
78
ENDCHAR
STARTCHAR Oacute
ENCODING 211
SWIDTH 823 0
DWIDTH 10 0
BBX 6 12 1 0
BITMAP
18
30
00
78
CC
CC
CC
CC
CC
CC
CC
78
ENDCHAR
STARTCHAR Ocircumflex
ENCODING 212
SWIDTH 823 0
DWIDTH 10 0
BBX 6 12 1 0
BITMAP
38
2C
00
78
CC
CC
CC
CC
CC
CC
CC
78
ENDCHAR
STARTCHAR Otilde
ENCODING 213
SWIDTH 823 0
DWIDTH 10 0
BBX 6 12 1 0
BITMAP
68
58
00
78
CC
CC
CC
CC
CC
CC
CC
78
ENDCHAR
STARTCHAR Odieresis
ENCODING 214
SWIDTH 823 0
DWIDTH 10 0
BBX 6 11 1 0
BITMAP
28
00
78
CC
CC
CC
CC
CC
CC
CC
78
ENDCHAR
STARTCHAR multiply
ENCODING 215
SWIDTH 795 0
DWIDTH 10 0
BBX 7 7 1 0
BITMAP
82
44
28
10
28
44
82
ENDCHAR
STARTCHAR Oslash
ENCODING 216
SWIDTH 823 0
DWIDTH 8 0
BBX 6 9 1 0
BITMAP
7C
CC
CC
DC
DC
EC
CC
CC
F8
ENDCHAR
STARTCHAR Ugrave
ENCODING 217
SWIDTH 736 0
DWIDTH 9 0
BBX 6 12 1 0
BITMAP
30
10
00
C4
C4
C4
C4
C4
C4
C4
C4
78
ENDCHAR
STARTCHAR Uacute
ENCODING 218
SWIDTH 736 0
DWIDTH 9 0
BBX 6 12 1 0
BITMAP
10
20
00
C4
C4
C4
C4
C4
C4
C4
C4
78
ENDCHAR
STARTCHAR Ucircumflex
ENCODING 219
SWIDTH 736 0
DWIDTH 9 0
BBX 6 12 1 0
BITMAP
38
48
00
C4
C4
C4
C4
C4
C4
C4
C4
78
ENDCHAR
STARTCHAR Udieresis
ENCODING 220
SWIDTH 736 0
DWIDTH 9 0
BBX 6 11 1 0
BITMAP
28
00
C4
C4
C4
C4
C4
C4
C4
C4
78
ENDCHAR
STARTCHAR Yacute
ENCODING 221
SWIDTH 686 0
DWIDTH 8 0
BBX 6 12 1 0
BITMAP
18
10
00
C4
C4
68
68
30
30
30
30
30
ENDCHAR
STARTCHAR Thorn
ENCODING 222
SWIDTH 613 0
DWIDTH 7 0
BBX 5 9 1 0
BITMAP
C0
C0
F0
D8
D8
D8
F0
C0
C0
ENDCHAR
STARTCHAR germandbls
ENCODING 223
SWIDTH 661 0
DWIDTH 8 0
BBX 6 9 1 0
BITMAP
78
CC
CC
D8
D8
CC
CC
CC
D8
ENDCHAR
STARTCHAR agrave
ENCODING 224
SWIDTH 587 0
DWIDTH 7 0
BBX 7 10 1 0
BITMAP
30
10
00
F8
0C
0C
7C
CC
CC
7E
ENDCHAR
STARTCHAR aacute
ENCODING 225
SWIDTH 587 0
DWIDTH 7 0
BBX 7 10 1 0
BITMAP
10
20
00
F8
0C
0C
7C
CC
CC
7E
ENDCHAR
STARTCHAR acircumflex
ENCODING 226
SWIDTH 587 0
DWIDTH 7 0
BBX 7 10 1 0
BITMAP
60
90
00
F8
0C
0C
7C
CC
CC
7E
ENDCHAR
STARTCHAR atilde
ENCODING 227
SWIDTH 587 0
DWIDTH 7 0
BBX 7 10 1 0
BITMAP
50
70
00
F8
0C
0C
7C
CC
CC
7E
ENDCHAR
STARTCHAR adieresis
ENCODING 228
SWIDTH 587 0
DWIDTH 7 0
BBX 7 9 1 0
BITMAP
50
00
F8
0C
0C
7C
CC
CC
7E
ENDCHAR
STARTCHAR aring
ENCODING 229
SWIDTH 587 0
DWIDTH 7 0
BBX 7 11 1 0
BITMAP
60
60
60
00
F8
0C
0C
7C
CC
CC
7E
ENDCHAR
STARTCHAR ae
ENCODING 230
SWIDTH 882 0
DWIDTH 10 0
BBX 8 7 1 0
BITMAP
F6
1B
1B
7F
D8
D8
6F
ENDCHAR
STARTCHAR ccedilla
ENCODING 231
SWIDTH 532 0
DWIDTH 6 0
BBX 4 10 1 -3
BITMAP
70
C0
C0
C0
C0
C0
70
20
20
20
ENDCHAR
STARTCHAR egrave
ENCODING 232
SWIDTH 585 0
DWIDTH 7 0
BBX 6 10 1 0
BITMAP
60
20
00
78
CC
CC
FC
C0
C0
7C
ENDCHAR
STARTCHAR eacute
ENCODING 233
SWIDTH 585 0
DWIDTH 7 0
BBX 6 10 1 0
BITMAP
10
20
00
78
CC
CC
FC
C0
C0
7C
ENDCHAR
STARTCHAR ecircumflex
ENCODING 234
SWIDTH 585 0
DWIDTH 7 0
BBX 6 10 1 0
BITMAP
70
90
00
78
CC
CC
FC
C0
C0
7C
ENDCHAR
STARTCHAR edieresis
ENCODING 235
SWIDTH 585 0
DWIDTH 7 0
BBX 6 9 1 0
BITMAP
50
00
78
CC
CC
FC
C0
C0
7C
ENDCHAR
STARTCHAR igrave
ENCODING 236
SWIDTH 325 0
DWIDTH 4 0
BBX 3 10 0 0
BITMAP
C0
60
00
60
60
60
60
60
60
60
ENDCHAR
STARTCHAR iacute
ENCODING 237
SWIDTH 325 0
DWIDTH 4 0
BBX 3 10 1 0
BITMAP
60
C0
00
C0
C0
C0
C0
C0
C0
C0
ENDCHAR
STARTCHAR icircumflex
ENCODING 238
SWIDTH 325 0
DWIDTH 4 0
BBX 4 10 1 0
BITMAP
E0
B0
00
C0
C0
C0
C0
C0
C0
C0
ENDCHAR
STARTCHAR idieresis
ENCODING 239
SWIDTH 325 0
DWIDTH 4 0
BBX 3 9 1 0
BITMAP
A0
00
C0
C0
C0
C0
C0
C0
C0
ENDCHAR
STARTCHAR eth
ENCODING 240
SWIDTH 639 0
DWIDTH 8 0
BBX 6 10 1 0
BITMAP
10
E0
30
58
7C
CC
CC
CC
CC
78
ENDCHAR
STARTCHAR ntilde
ENCODING 241
SWIDTH 656 0
DWIDTH 8 0
BBX 6 10 1 0
BITMAP
68
58
00
D8
EC
CC
CC
CC
CC
CC
ENDCHAR
STARTCHAR ograve
ENCODING 242
SWIDTH 638 0
DWIDTH 8 0
BBX 6 10 1 0
BITMAP
60
30
00
78
CC
CC
CC
CC
CC
78
ENDCHAR
STARTCHAR oacute
ENCODING 243
SWIDTH 638 0
DWIDTH 8 0
BBX 6 10 1 0
BITMAP
18
30
00
78
CC
CC
CC
CC
CC
78
ENDCHAR
STARTCHAR ocircumflex
ENCODING 244
SWIDTH 638 0
DWIDTH 8 0
BBX 6 10 1 0
BITMAP
38
6C
00
78
CC
CC
CC
CC
CC
78
ENDCHAR
STARTCHAR otilde
ENCODING 245
SWIDTH 638 0
DWIDTH 8 0
BBX 6 10 1 0
BITMAP
68
58
00
78
CC
CC
CC
CC
CC
78
ENDCHAR
STARTCHAR odieresis
ENCODING 246
SWIDTH 638 0
DWIDTH 8 0
BBX 6 9 1 0
BITMAP
28
00
78
CC
CC
CC
CC
CC
78
ENDCHAR
STARTCHAR divide
ENCODING 247
SWIDTH 795 0
DWIDTH 7 0
BBX 7 5 0 1
BITMAP
10
00
FE
00
10
ENDCHAR
STARTCHAR oslash
ENCODING 248
SWIDTH 638 0
DWIDTH 8 0
BBX 6 7 1 0
BITMAP
7C
CC
DC
EC
EC
CC
F8
ENDCHAR
STARTCHAR ugrave
ENCODING 249
SWIDTH 656 0
DWIDTH 8 0
BBX 6 10 1 0
BITMAP
60
30
00
CC
CC
CC
CC
CC
DC
6C
ENDCHAR
STARTCHAR uacute
ENCODING 250
SWIDTH 656 0
DWIDTH 8 0
BBX 6 10 1 0
BITMAP
18
30
00
CC
CC
CC
CC
CC
DC
6C
ENDCHAR
STARTCHAR ucircumflex
ENCODING 251
SWIDTH 656 0
DWIDTH 8 0
BBX 6 10 1 0
BITMAP
38
6C
00
CC
CC
CC
CC
CC
DC
6C
ENDCHAR
STARTCHAR udieresis
ENCODING 252
SWIDTH 656 0
DWIDTH 8 0
BBX 6 9 1 0
BITMAP
28
00
CC
CC
CC
CC
CC
DC
6C
ENDCHAR
STARTCHAR yacute
ENCODING 253
SWIDTH 583 0
DWIDTH 7 0
BBX 6 12 0 -2
BITMAP
18
20
00
C4
C4
68
68
70
30
30
20
60
ENDCHAR
STARTCHAR thorn
ENCODING 254
SWIDTH 662 0
DWIDTH 8 0
BBX 6 11 1 -2
BITMAP
C0
C0
F8
CC
CC
CC
CC
CC
F8
C0
C0
ENDCHAR
STARTCHAR ydieresis
ENCODING 255
SWIDTH 583 0
DWIDTH 7 0
BBX 6 11 0 -2
BITMAP
28
00
C4
C4
68
68
70
30
30
20
60
ENDCHAR
STARTCHAR Amacron
ENCODING 256
SWIDTH 736 0
DWIDTH 9 0
BBX 6 11 1 0
BITMAP
3C
00
30
30
58
58
58
78
8C
8C
8C
ENDCHAR
STARTCHAR amacron
ENCODING 257
SWIDTH 587 0
DWIDTH 7 0
BBX 7 9 1 0
BITMAP
78
00
F8
0C
0C
7C
CC
CC
7E
ENDCHAR
STARTCHAR Abreve
ENCODING 258
SWIDTH 736 0
DWIDTH 9 0
BBX 6 12 1 0
BITMAP
28
38
00
30
30
58
58
58
78
8C
8C
8C
ENDCHAR
STARTCHAR abreve
ENCODING 259
SWIDTH 587 0
DWIDTH 7 0
BBX 7 10 1 0
BITMAP
58
70
00
F8
0C
0C
7C
CC
CC
7E
ENDCHAR
STARTCHAR Aogonek
ENCODING 260
SWIDTH 736 0
DWIDTH 9 0
BBX 7 12 1 -3
BITMAP
30
30
58
58
58
78
8C
8C
8C
08
08
0E
ENDCHAR
STARTCHAR aogonek
ENCODING 261
SWIDTH 587 0
DWIDTH 7 0
BBX 7 10 1 -3
BITMAP
F8
0C
0C
7C
CC
CC
7E
20
20
38
ENDCHAR
STARTCHAR Cacute
ENCODING 262
SWIDTH 712 0
DWIDTH 9 0
BBX 6 12 1 0
BITMAP
18
10
00
3C
60
C0
C0
C0
C0
C0
60
3C
ENDCHAR
STARTCHAR cacute
ENCODING 263
SWIDTH 532 0
DWIDTH 6 0
BBX 5 10 1 0
BITMAP
18
30
00
70
C0
C0
C0
C0
C0
70
ENDCHAR
STARTCHAR Ccaron
ENCODING 268
SWIDTH 712 0
DWIDTH 9 0
BBX 6 12 1 0
BITMAP
24
18
00
3C
60
C0
C0
C0
C0
C0
60
3C
ENDCHAR
STARTCHAR ccaron
ENCODING 269
SWIDTH 532 0
DWIDTH 6 0
BBX 5 10 1 0
BITMAP
D8
70
00
70
C0
C0
C0
C0
C0
70
ENDCHAR
STARTCHAR Dcaron
ENCODING 270
SWIDTH 792 0
DWIDTH 10 0
BBX 6 12 1 0
BITMAP
D8
70
00
F0
D8
CC
CC
CC
CC
CC
D8
F0
ENDCHAR
STARTCHAR dcaron
ENCODING 271
SWIDTH 807 0
DWIDTH 10 0
BBX 9 9 1 0
BITMAP
0D80
0C80
2D00
FC00
CC00
8C00
8C00
DC00
FC00
ENDCHAR
STARTCHAR Dcroat
ENCODING 272
SWIDTH 792 0
DWIDTH 8 0
BBX 7 9 0 0
BITMAP
78
6C
66
66
F6
66
66
6C
78
ENDCHAR
STARTCHAR dcroat
ENCODING 273
SWIDTH 662 0
DWIDTH 8 0
BBX 7 9 1 0
BITMAP
3E
0C
7C
CC
CC
CC
CC
CC
7C
ENDCHAR
STARTCHAR Emacron
ENCODING 274
SWIDTH 600 0
DWIDTH 7 0
BBX 5 11 1 0
BITMAP
78
00
F8
C0
C0
C0
F0
C0
C0
C0
F8
ENDCHAR
STARTCHAR emacron
ENCODING 275
SWIDTH 585 0
DWIDTH 7 0
BBX 6 9 1 0
BITMAP
78
00
78
CC
CC
FC
C0
C0
7C
ENDCHAR
STARTCHAR Edotaccent
ENCODING 278
SWIDTH 600 0
DWIDTH 7 0
BBX 5 12 1 0
BITMAP
30
30
00
F8
C0
C0
C0
F0
C0
C0
C0
F8
ENDCHAR
STARTCHAR edotaccent
ENCODING 279
SWIDTH 585 0
DWIDTH 7 0
BBX 6 10 1 0
BITMAP
30
30
00
78
CC
CC
FC
C0
C0
7C
ENDCHAR
STARTCHAR Eogonek
ENCODING 280
SWIDTH 600 0
DWIDTH 7 0
BBX 5 12 1 -3
BITMAP
F8
C0
C0
C0
F0
C0
C0
C0
F8
40
80
E0
ENDCHAR
STARTCHAR eogonek
ENCODING 281
SWIDTH 585 0
DWIDTH 7 0
BBX 6 10 1 -3
BITMAP
78
CC
CC
FC
C0
C0
7C
40
40
70
ENDCHAR
STARTCHAR Ecaron
ENCODING 282
SWIDTH 600 0
DWIDTH 7 0
BBX 5 12 1 0
BITMAP
D0
70
00
F8
C0
C0
C0
F0
C0
C0
C0
F8
ENDCHAR
STARTCHAR ecaron
ENCODING 283
SWIDTH 585 0
DWIDTH 7 0
BBX 6 10 1 0
BITMAP
90
70
00
78
CC
CC
FC
C0
C0
7C
ENDCHAR
STARTCHAR Gbreve
ENCODING 286
SWIDTH 745 0
DWIDTH 9 0
BBX 6 12 1 0
BITMAP
68
38
00
3C
60
C0
C0
C0
CC
CC
6C
3C
ENDCHAR
STARTCHAR gbreve
ENCODING 287
SWIDTH 659 0
DWIDTH 8 0
BBX 6 12 1 -2
BITMAP
48
70
00
7C
CC
CC
CC
CC
CC
7C
0C
78
ENDCHAR
STARTCHAR uni0122
ENCODING 290
SWIDTH 745 0
DWIDTH 9 0
BBX 6 12 1 -3
BITMAP
3C
60
C0
C0
C0
CC
CC
6C
3C
20
10
20
ENDCHAR
STARTCHAR uni0123
ENCODING 291
SWIDTH 659 0
DWIDTH 8 0
BBX 6 12 1 -2
BITMAP
18
30
00
7C
CC
CC
CC
CC
CC
7C
0C
78
ENDCHAR
STARTCHAR Itilde
ENCODING 296
SWIDTH 331 0
DWIDTH 4 0
BBX 4 12 0 0
BITMAP
D0
B0
00
60
60
60
60
60
60
60
60
60
ENDCHAR
STARTCHAR itilde
ENCODING 297
SWIDTH 325 0
DWIDTH 4 0
BBX 4 10 0 0
BITMAP
D0
B0
00
60
60
60
60
60
60
60
ENDCHAR
STARTCHAR Imacron
ENCODING 298
SWIDTH 331 0
DWIDTH 4 0
BBX 4 11 0 0
BITMAP
F0
00
60
60
60
60
60
60
60
60
60
ENDCHAR
STARTCHAR imacron
ENCODING 299
SWIDTH 325 0
DWIDTH 4 0
BBX 4 9 0 0
BITMAP
F0
00
60
60
60
60
60
60
60
ENDCHAR
STARTCHAR Iogonek
ENCODING 302
SWIDTH 331 0
DWIDTH 4 0
BBX 3 12 0 -3
BITMAP
60
60
60
60
60
60
60
60
60
40
80
E0
ENDCHAR
STARTCHAR iogonek
ENCODING 303
SWIDTH 325 0
DWIDTH 4 0
BBX 3 12 0 -3
BITMAP
60
00
60
60
60
60
60
60
60
80
80
E0
ENDCHAR
STARTCHAR Idotaccent
ENCODING 304
SWIDTH 331 0
DWIDTH 4 0
BBX 2 12 1 0
BITMAP
C0
C0
00
C0
C0
C0
C0
C0
C0
C0
C0
C0
ENDCHAR
STARTCHAR dotlessi
ENCODING 305
SWIDTH 325 0
DWIDTH 4 0
BBX 2 7 1 0
BITMAP
C0
C0
C0
C0
C0
C0
C0
ENDCHAR
STARTCHAR IJ
ENCODING 306
SWIDTH 698 0
DWIDTH 8 0
BBX 6 11 1 -2
BITMAP
CC
CC
CC
CC
CC
CC
CC
CC
CC
0C
78
ENDCHAR
STARTCHAR ij
ENCODING 307
SWIDTH 655 0
DWIDTH 8 0
BBX 6 11 1 -2
BITMAP
CC
00
CC
CC
CC
CC
CC
CC
CC
0C
38
ENDCHAR
STARTCHAR Jcircumflex
ENCODING 308
SWIDTH 332 0
DWIDTH 4 0
BBX 2 9 1 0
BITMAP
C0
C0
C0
C0
C0
C0
C0
C0
C0
ENDCHAR
STARTCHAR jcircumflex
ENCODING 309
SWIDTH 325 0
DWIDTH 4 0
BBX 2 9 1 0
BITMAP
C0
00
C0
C0
C0
C0
C0
C0
C0
ENDCHAR
STARTCHAR uni0136
ENCODING 310
SWIDTH 709 0
DWIDTH 9 0
BBX 7 12 1 -3
BITMAP
C2
C4
C8
D0
F0
D8
CC
CC
C6
80
40
C0
ENDCHAR
STARTCHAR uni0137
ENCODING 311
SWIDTH 632 0
DWIDTH 8 0
BBX 7 12 1 -3
BITMAP
C0
C0
C4
C8
D0
F0
D8
CC
C6
80
40
C0
ENDCHAR
STARTCHAR Lacute
ENCODING 313
SWIDTH 581 0
DWIDTH 7 0
BBX 5 12 1 0
BITMAP
30
60
00
C0
C0
C0
C0
C0
C0
C0
C0
F8
ENDCHAR
STARTCHAR lacute
ENCODING 314
SWIDTH 325 0
DWIDTH 4 0
BBX 3 12 1 0
BITMAP
60
C0
00
C0
C0
C0
C0
C0
C0
C0
C0
C0
ENDCHAR
STARTCHAR uni013B
ENCODING 315
SWIDTH 581 0
DWIDTH 7 0
BBX 5 12 1 -3
BITMAP
C0
C0
C0
C0
C0
C0
C0
C0
F8
20
10
20
ENDCHAR
STARTCHAR uni013C
ENCODING 316
SWIDTH 325 0
DWIDTH 4 0
BBX 2 12 1 -3
BITMAP
C0
C0
C0
C0
C0
C0
C0
C0
C0
80
40
80
ENDCHAR
STARTCHAR Lcaron
ENCODING 317
SWIDTH 581 0
DWIDTH 7 0
BBX 6 9 1 0
BITMAP
C8
C8
C8
C8
C0
C0
C0
C0
FC
ENDCHAR
STARTCHAR lcaron
ENCODING 318
SWIDTH 469 0
DWIDTH 6 0
BBX 5 9 1 0
BITMAP
D8
D8
D0
C0
C0
C0
C0
C0
C0
ENDCHAR
STARTCHAR Ldot
ENCODING 319
SWIDTH 581 0
DWIDTH 7 0
BBX 5 9 1 0
BITMAP
C0
C0
D8
D8
C0
C0
C0
C0
F8
ENDCHAR
STARTCHAR ldot
ENCODING 320
SWIDTH 469 0
DWIDTH 6 0
BBX 5 9 1 0
BITMAP
C0
C0
C0
D8
D8
C0
C0
C0
C0
ENDCHAR
STARTCHAR Lslash
ENCODING 321
SWIDTH 587 0
DWIDTH 7 0
BBX 6 9 0 0
BITMAP
60
60
70
60
60
E0
60
60
7C
ENDCHAR
STARTCHAR lslash
ENCODING 322
SWIDTH 355 0
DWIDTH 4 0
BBX 4 9 0 0
BITMAP
60
60
60
70
60
E0
60
60
60
ENDCHAR
STARTCHAR Nacute
ENCODING 323
SWIDTH 768 0
DWIDTH 9 0
BBX 7 12 1 0
BITMAP
0C
18
00
82
C2
E2
B2
B2
9A
8E
86
82
ENDCHAR
STARTCHAR nacute
ENCODING 324
SWIDTH 656 0
DWIDTH 8 0
BBX 6 10 1 0
BITMAP
08
10
00
D8
EC
CC
CC
CC
CC
CC
ENDCHAR
STARTCHAR uni0145
ENCODING 325
SWIDTH 768 0
DWIDTH 9 0
BBX 7 12 1 -3
BITMAP
82
C2
E2
B2
B2
9A
8E
86
82
80
40
80
ENDCHAR
STARTCHAR uni0146
ENCODING 326
SWIDTH 656 0
DWIDTH 7 0
BBX 6 10 0 -3
BITMAP
D8
EC
CC
CC
CC
CC
CC
80
40
C0
ENDCHAR
STARTCHAR Ncaron
ENCODING 327
SWIDTH 768 0
DWIDTH 9 0
BBX 7 12 1 0
BITMAP
48
38
00
82
C2
E2
B2
B2
9A
8E
86
82
ENDCHAR
STARTCHAR ncaron
ENCODING 328
SWIDTH 656 0
DWIDTH 8 0
BBX 6 10 1 0
BITMAP
58
70
00
D8
EC
CC
CC
CC
CC
CC
ENDCHAR
STARTCHAR napostrophe
ENCODING 329
SWIDTH 656 0
DWIDTH 8 0
BBX 6 11 1 0
BITMAP
C0
C0
40
00
18
FC
CC
CC
CC
CC
CC
ENDCHAR
STARTCHAR Omacron
ENCODING 332
SWIDTH 823 0
DWIDTH 10 0
BBX 6 11 1 0
BITMAP
78
00
78
CC
CC
CC
CC
CC
CC
CC
78
ENDCHAR
STARTCHAR omacron
ENCODING 333
SWIDTH 638 0
DWIDTH 8 0
BBX 6 9 1 0
BITMAP
78
00
78
CC
CC
CC
CC
CC
78
ENDCHAR
STARTCHAR Ohungarumlaut
ENCODING 336
SWIDTH 823 0
DWIDTH 10 0
BBX 6 12 1 0
BITMAP
28
28
00
78
CC
CC
CC
CC
CC
CC
CC
78
ENDCHAR
STARTCHAR ohungarumlaut
ENCODING 337
SWIDTH 638 0
DWIDTH 8 0
BBX 6 10 1 0
BITMAP
28
28
00
78
CC
CC
CC
CC
CC
78
ENDCHAR
STARTCHAR OE.dup1
ENCODING 338
SWIDTH 1059 0
DWIDTH 11 0
BBX 9 9 1 0
BITMAP
7F80
CC00
CC00
CC00
CF00
CC00
CC00
CC00
7F80
ENDCHAR
STARTCHAR oe.dup2
ENCODING 339
SWIDTH 959 0
DWIDTH 12 0
BBX 10 7 1 0
BITMAP
7F80
CCC0
CCC0
CFC0
CC00
CE00
7FC0
ENDCHAR
STARTCHAR Racute
ENCODING 340
SWIDTH 689 0
DWIDTH 8 0
BBX 6 12 1 0
BITMAP
18
10
00
F8
CC
CC
CC
F8
D8
D8
CC
CC
ENDCHAR
STARTCHAR racute
ENCODING 341
SWIDTH 454 0
DWIDTH 5 0
BBX 4 10 1 0
BITMAP
30
60
00
F0
C0
C0
C0
C0
C0
C0
ENDCHAR
STARTCHAR uni0156
ENCODING 342
SWIDTH 689 0
DWIDTH 8 0
BBX 6 12 1 -3
BITMAP
F8
CC
CC
CC
F8
D8
D8
CC
CC
80
40
C0
ENDCHAR
STARTCHAR uni0157
ENCODING 343
SWIDTH 454 0
DWIDTH 5 0
BBX 4 10 1 -3
BITMAP
F0
C0
C0
C0
C0
C0
C0
80
40
C0
ENDCHAR
STARTCHAR Rcaron
ENCODING 344
SWIDTH 689 0
DWIDTH 8 0
BBX 6 12 1 0
BITMAP
90
70
00
F8
CC
CC
CC
F8
D8
D8
CC
CC
ENDCHAR
STARTCHAR rcaron
ENCODING 345
SWIDTH 454 0
DWIDTH 5 0
BBX 5 10 0 0
BITMAP
D8
70
00
78
60
60
60
60
60
60
ENDCHAR
STARTCHAR Sacute
ENCODING 346
SWIDTH 571 0
DWIDTH 7 0
BBX 5 12 1 0
BITMAP
10
20
00
78
C0
C0
E0
70
38
18
18
F0
ENDCHAR
STARTCHAR sacute
ENCODING 347
SWIDTH 565 0
DWIDTH 7 0
BBX 5 10 1 0
BITMAP
10
20
00
78
C0
E0
70
38
18
F0
ENDCHAR
STARTCHAR Scedilla
ENCODING 350
SWIDTH 571 0
DWIDTH 7 0
BBX 5 12 1 -3
BITMAP
78
C8
80
C0
70
38
18
18
F8
00
20
40
ENDCHAR
STARTCHAR scedilla
ENCODING 351
SWIDTH 565 0
DWIDTH 7 0
BBX 5 10 1 -3
BITMAP
30
F0
C0
F0
38
18
F0
00
30
20
ENDCHAR
STARTCHAR Scaron.dup3
ENCODING 352
SWIDTH 571 0
DWIDTH 7 0
BBX 5 12 1 0
BITMAP
90
60
00
78
C0
C0
E0
70
38
18
18
F0
ENDCHAR
STARTCHAR scaron.dup4
ENCODING 353
SWIDTH 565 0
DWIDTH 7 0
BBX 5 10 1 0
BITMAP
90
70
00
78
C0
E0
70
38
18
F0
ENDCHAR
STARTCHAR uni0162
ENCODING 354
SWIDTH 689 0
DWIDTH 8 0
BBX 8 12 0 -3
BITMAP
FF
FF
18
18
18
18
18
18
18
00
08
10
ENDCHAR
STARTCHAR uni0163
ENCODING 355
SWIDTH 404 0
DWIDTH 5 0
BBX 4 11 0 -3
BITMAP
60
60
F0
60
60
60
60
30
00
30
20
ENDCHAR
STARTCHAR Tcaron
ENCODING 356
SWIDTH 689 0
DWIDTH 8 0
BBX 6 12 0 0
BITMAP
48
30
00
FC
30
30
30
30
30
30
30
30
ENDCHAR
STARTCHAR tcaron
ENCODING 357
SWIDTH 404 0
DWIDTH 5 0
BBX 5 11 0 0
BITMAP
18
08
18
60
60
F0
60
60
60
60
30
ENDCHAR
STARTCHAR Utilde
ENCODING 360
SWIDTH 736 0
DWIDTH 9 0
BBX 6 12 1 0
BITMAP
34
28
00
C4
C4
C4
C4
C4
C4
C4
C4
78
ENDCHAR
STARTCHAR utilde
ENCODING 361
SWIDTH 656 0
DWIDTH 8 0
BBX 6 10 1 0
BITMAP
68
58
00
CC
CC
CC
CC
CC
DC
6C
ENDCHAR
STARTCHAR Umacron
ENCODING 362
SWIDTH 736 0
DWIDTH 9 0
BBX 6 11 1 0
BITMAP
3C
00
C4
C4
C4
C4
C4
C4
C4
C4
78
ENDCHAR
STARTCHAR umacron
ENCODING 363
SWIDTH 656 0
DWIDTH 8 0
BBX 6 9 1 0
BITMAP
78
00
CC
CC
CC
CC
CC
DC
6C
ENDCHAR
STARTCHAR Uring
ENCODING 366
SWIDTH 736 0
DWIDTH 9 0
BBX 6 13 1 0
BITMAP
30
30
30
00
C4
C4
C4
C4
C4
C4
C4
C4
78
ENDCHAR
STARTCHAR uring
ENCODING 367
SWIDTH 656 0
DWIDTH 8 0
BBX 6 11 1 0
BITMAP
30
50
30
00
CC
CC
CC
CC
CC
DC
6C
ENDCHAR
STARTCHAR Uhungarumlaut
ENCODING 368
SWIDTH 736 0
DWIDTH 9 0
BBX 6 12 1 0
BITMAP
14
28
00
C4
C4
C4
C4
C4
C4
C4
C4
78
ENDCHAR
STARTCHAR uhungarumlaut
ENCODING 369
SWIDTH 656 0
DWIDTH 8 0
BBX 6 10 1 0
BITMAP
28
50
00
CC
CC
CC
CC
CC
DC
6C
ENDCHAR
STARTCHAR Uogonek
ENCODING 370
SWIDTH 736 0
DWIDTH 9 0
BBX 6 12 1 -3
BITMAP
C4
C4
C4
C4
C4
C4
C4
C4
78
20
40
30
ENDCHAR
STARTCHAR uogonek
ENCODING 371
SWIDTH 656 0
DWIDTH 8 0
BBX 6 10 1 -3
BITMAP
CC
CC
CC
CC
CC
DC
6C
10
20
38
ENDCHAR
STARTCHAR Ydieresis.dup5
ENCODING 376
SWIDTH 686 0
DWIDTH 8 0
BBX 6 11 1 0
BITMAP
50
00
C4
C4
68
68
30
30
30
30
30
ENDCHAR
STARTCHAR Zacute
ENCODING 377
SWIDTH 644 0
DWIDTH 8 0
BBX 6 12 1 0
BITMAP
18
30
00
FC
0C
18
18
30
60
60
C0
FC
ENDCHAR
STARTCHAR zacute
ENCODING 378
SWIDTH 590 0
DWIDTH 7 0
BBX 5 10 1 0
BITMAP
18
30
00
F8
18
30
70
60
C0
F8
ENDCHAR
STARTCHAR Zdotaccent
ENCODING 379
SWIDTH 644 0
DWIDTH 8 0
BBX 6 12 1 0
BITMAP
30
30
00
FC
0C
18
18
30
60
60
C0
FC
ENDCHAR
STARTCHAR zdotaccent
ENCODING 380
SWIDTH 590 0
DWIDTH 7 0
BBX 5 10 1 0
BITMAP
30
30
00
F8
18
30
70
60
C0
F8
ENDCHAR
STARTCHAR Zcaron
ENCODING 381
SWIDTH 644 0
DWIDTH 8 0
BBX 6 12 1 0
BITMAP
58
70
00
FC
0C
18
18
30
60
60
C0
FC
ENDCHAR
STARTCHAR zcaron
ENCODING 382
SWIDTH 590 0
DWIDTH 7 0
BBX 5 10 1 0
BITMAP
90
70
00
F8
18
30
70
60
C0
F8
ENDCHAR
STARTCHAR florin.dup6
ENCODING 402
SWIDTH 638 0
DWIDTH 6 0
BBX 6 11 0 -2
BITMAP
1C
30
60
60
F0
60
60
60
C0
C0
C0
ENDCHAR
STARTCHAR Ohorn
ENCODING 416
SWIDTH 880 0
DWIDTH 9 0
BBX 7 9 1 0
BITMAP
7A
CE
CC
CC
CC
CC
CC
CC
78
ENDCHAR
STARTCHAR ohorn
ENCODING 417
SWIDTH 717 0
DWIDTH 9 0
BBX 7 7 1 0
BITMAP
7A
CE
CC
CC
CC
CC
78
ENDCHAR
STARTCHAR Uhorn
ENCODING 431
SWIDTH 826 0
DWIDTH 10 0
BBX 9 10 1 0
BITMAP
0080
C280
C300
C200
C200
C200
C200
C200
E600
7C00
ENDCHAR
STARTCHAR uhorn
ENCODING 432
SWIDTH 740 0
DWIDTH 9 0
BBX 8 8 1 0
BITMAP
01
CD
CE
CC
CC
CC
DC
6C
ENDCHAR
STARTCHAR circumflex.dup7
ENCODING 710
SWIDTH 638 0
DWIDTH 6 0
BBX 5 2 0 8
BITMAP
70
D8
ENDCHAR
STARTCHAR caron
ENCODING 711
SWIDTH 638 0
DWIDTH 6 0
BBX 5 2 0 8
BITMAP
D8
70
ENDCHAR
STARTCHAR macron
ENCODING 713
SWIDTH 638 0
DWIDTH 6 0
BBX 4 1 1 8
BITMAP
F0
ENDCHAR
STARTCHAR breve
ENCODING 728
SWIDTH 638 0
DWIDTH 6 0
BBX 4 2 1 8
BITMAP
90
60
ENDCHAR
STARTCHAR dotaccent
ENCODING 729
SWIDTH 638 0
DWIDTH 6 0
BBX 2 2 2 8
BITMAP
C0
C0
ENDCHAR
STARTCHAR ring
ENCODING 730
SWIDTH 638 0
DWIDTH 6 0
BBX 3 3 1 8
BITMAP
40
A0
40
ENDCHAR
STARTCHAR ogonek
ENCODING 731
SWIDTH 638 0
DWIDTH 6 0
BBX 3 3 1 -3
BITMAP
80
80
E0
ENDCHAR
STARTCHAR tilde.dup8
ENCODING 732
SWIDTH 638 0
DWIDTH 8 0
BBX 4 2 2 8
BITMAP
D0
B0
ENDCHAR
STARTCHAR hungarumlaut
ENCODING 733
SWIDTH 638 0
DWIDTH 6 0
BBX 4 2 1 8
BITMAP
50
A0
ENDCHAR
STARTCHAR gravecomb
ENCODING 768
SWIDTH 639 0
DWIDTH 8 0
BBX 3 2 1 8
BITMAP
C0
60
ENDCHAR
STARTCHAR acutecomb
ENCODING 769
SWIDTH 639 0
DWIDTH 8 0
BBX 3 2 2 8
BITMAP
60
C0
ENDCHAR
STARTCHAR uni0302
ENCODING 770
SWIDTH 639 0
DWIDTH 8 0
BBX 5 2 0 8
BITMAP
70
D8
ENDCHAR
STARTCHAR tildecomb
ENCODING 771
SWIDTH 639 0
DWIDTH 8 0
BBX 4 2 2 8
BITMAP
D0
B0
ENDCHAR
STARTCHAR hookabovecomb
ENCODING 777
SWIDTH 638 0
DWIDTH 8 0
BBX 3 2 2 8
BITMAP
E0
40
ENDCHAR
STARTCHAR dotbelowcomb
ENCODING 803
SWIDTH 638 0
DWIDTH 8 0
BBX 2 2 3 -3
BITMAP
C0
C0
ENDCHAR
STARTCHAR tonos
ENCODING 900
SWIDTH 638 0
DWIDTH 8 0
BBX 2 2 3 8
BITMAP
C0
C0
ENDCHAR
STARTCHAR dieresistonos
ENCODING 901
SWIDTH 638 0
DWIDTH 8 0
BBX 6 2 1 8
BITMAP
30
B4
ENDCHAR
STARTCHAR Alphatonos
ENCODING 902
SWIDTH 736 0
DWIDTH 9 0
BBX 8 9 -1 0
BITMAP
CC
CC
16
16
16
1E
23
23
23
ENDCHAR
STARTCHAR anoteleia
ENCODING 903
SWIDTH 247 0
DWIDTH 3 0
BBX 2 2 0 3
BITMAP
C0
C0
ENDCHAR
STARTCHAR Epsilontonos
ENCODING 904
SWIDTH 739 0
DWIDTH 9 0
BBX 8 9 0 0
BITMAP
DF
D8
18
18
1E
18
18
18
1F
ENDCHAR
STARTCHAR Etatonos
ENCODING 905
SWIDTH 918 0
DWIDTH 11 0
BBX 9 9 0 0
BITMAP
D980
D980
1980
1980
1F80
1980
1980
1980
1980
ENDCHAR
STARTCHAR Iotatonos
ENCODING 906
SWIDTH 469 0
DWIDTH 6 0
BBX 5 9 0 0
BITMAP
D8
D8
18
18
18
18
18
18
18
ENDCHAR
STARTCHAR Omicrontonos
ENCODING 908
SWIDTH 936 0
DWIDTH 10 0
BBX 10 9 0 0
BITMAP
C700
CD80
1980
18C0
18C0
18C0
1980
0D80
0700
ENDCHAR
STARTCHAR Upsilontonos
ENCODING 910
SWIDTH 882 0
DWIDTH 11 0
BBX 11 9 0 0
BITMAP
D820
C440
0680
0300
0300
0300
0300
0300
0300
ENDCHAR
STARTCHAR Omegatonos
ENCODING 911
SWIDTH 948 0
DWIDTH 11 0
BBX 10 9 0 0
BITMAP
CF00
D8C0
18C0
30C0
30C0
30C0
18C0
1880
39C0
ENDCHAR
STARTCHAR iotadieresistonos
ENCODING 912
SWIDTH 384 0
DWIDTH 5 0
BBX 6 10 -1 0
BITMAP
30
B4
00
30
30
30
30
30
30
18
ENDCHAR
STARTCHAR Alpha
ENCODING 913
SWIDTH 735 0
DWIDTH 9 0
BBX 6 9 1 0
BITMAP
30
30
58
58
58
78
8C
8C
8C
ENDCHAR
STARTCHAR Beta
ENCODING 914
SWIDTH 629 0
DWIDTH 8 0
BBX 6 9 1 0
BITMAP
F8
CC
CC
CC
F8
CC
CC
CC
F8
ENDCHAR
STARTCHAR Gamma
ENCODING 915
SWIDTH 557 0
DWIDTH 7 0
BBX 5 9 1 0
BITMAP
F8
C0
C0
C0
C0
C0
C0
C0
C0
ENDCHAR
STARTCHAR uni0394
ENCODING 916
SWIDTH 733 0
DWIDTH 9 0
BBX 8 9 0 0
BITMAP
18
18
2C
2C
46
46
46
83
FF
ENDCHAR
STARTCHAR Epsilon
ENCODING 917
SWIDTH 601 0
DWIDTH 7 0
BBX 5 9 1 0
BITMAP
F8
C0
C0
C0
F0
C0
C0
C0
F8
ENDCHAR
STARTCHAR Zeta
ENCODING 918
SWIDTH 645 0
DWIDTH 8 0
BBX 6 9 1 0
BITMAP
FC
0C
18
18
30
60
60
C0
FC
ENDCHAR
STARTCHAR Eta
ENCODING 919
SWIDTH 779 0
DWIDTH 9 0
BBX 6 9 1 0
BITMAP
CC
CC
CC
CC
FC
CC
CC
CC
CC
ENDCHAR
STARTCHAR Theta
ENCODING 920
SWIDTH 823 0
DWIDTH 10 0
BBX 8 9 1 0
BITMAP
3C
66
C3
C3
DB
C3
C3
66
3C
ENDCHAR
STARTCHAR Iota
ENCODING 921
SWIDTH 332 0
DWIDTH 4 0
BBX 2 9 1 0
BITMAP
C0
C0
C0
C0
C0
C0
C0
C0
C0
ENDCHAR
STARTCHAR Kappa
ENCODING 922
SWIDTH 709 0
DWIDTH 9 0
BBX 7 9 1 0
BITMAP
C2
C4
C8
D0
F0
D8
CC
CC
C6
ENDCHAR
STARTCHAR Lambda
ENCODING 923
SWIDTH 736 0
DWIDTH 8 0
BBX 6 9 1 0
BITMAP
30
30
58
58
58
58
8C
8C
8C
ENDCHAR
STARTCHAR Mu
ENCODING 924
SWIDTH 908 0
DWIDTH 11 0
BBX 9 9 1 0
BITMAP
C180
E380
E380
B580
B580
B580
9980
9980
8180
ENDCHAR
STARTCHAR Nu
ENCODING 925
SWIDTH 769 0
DWIDTH 9 0
BBX 7 9 1 0
BITMAP
82
C2
E2
B2
B2
9A
8E
86
82
ENDCHAR
STARTCHAR Xi
ENCODING 926
SWIDTH 608 0
DWIDTH 7 0
BBX 5 9 1 0
BITMAP
F8
F8
00
00
70
00
00
F8
F8
ENDCHAR
STARTCHAR Omicron
ENCODING 927
SWIDTH 823 0
DWIDTH 10 0
BBX 6 9 1 0
BITMAP
78
CC
CC
CC
CC
CC
CC
CC
78
ENDCHAR
STARTCHAR Pi
ENCODING 928
SWIDTH 780 0
DWIDTH 9 0
BBX 7 9 1 0
BITMAP
FE
C6
C6
C6
C6
C6
C6
C6
C6
ENDCHAR
STARTCHAR Rho
ENCODING 929
SWIDTH 612 0
DWIDTH 7 0
BBX 6 9 1 0
BITMAP
F8
CC
CC
CC
CC
F8
C0
C0
C0
ENDCHAR
STARTCHAR Sigma
ENCODING 931
SWIDTH 637 0
DWIDTH 8 0
BBX 7 9 0 0
BITMAP
FE
C0
60
30
18
10
20
C0
FE
ENDCHAR
STARTCHAR Tau
ENCODING 932
SWIDTH 689 0
DWIDTH 8 0
BBX 6 9 0 0
BITMAP
FC
30
30
30
30
30
30
30
30
ENDCHAR
STARTCHAR Upsilon
ENCODING 933
SWIDTH 667 0
DWIDTH 8 0
BBX 8 9 0 0
BITMAP
C1
22
34
18
18
18
18
18
18
ENDCHAR
STARTCHAR Phi
ENCODING 934
SWIDTH 762 0
DWIDTH 9 0
BBX 8 9 0 0
BITMAP
18
7E
DB
DB
DB
DB
DB
7E
18
ENDCHAR
STARTCHAR Chi
ENCODING 935
SWIDTH 666 0
DWIDTH 8 0
BBX 6 9 1 0
BITMAP
C4
C4
68
70
30
38
58
8C
8C
ENDCHAR
STARTCHAR Psi
ENCODING 936
SWIDTH 773 0
DWIDTH 9 0
BBX 10 9 -1 0
BITMAP
CCC0
6D80
6D80
6D80
3F00
0C00
0C00
0C00
0C00
ENDCHAR
STARTCHAR uni03A9
ENCODING 937
SWIDTH 837 0
DWIDTH 10 0
BBX 8 9 1 0
BITMAP
3C
66
C3
C3
C3
C3
C3
66
E7
ENDCHAR
STARTCHAR Iotadieresis
ENCODING 938
SWIDTH 331 0
DWIDTH 4 0
BBX 3 11 1 0
BITMAP
A0
00
C0
C0
C0
C0
C0
C0
C0
C0
C0
ENDCHAR
STARTCHAR Upsilondieresis
ENCODING 939
SWIDTH 667 0
DWIDTH 8 0
BBX 8 11 0 0
BITMAP
14
00
C1
22
34
18
18
18
18
18
18
ENDCHAR
STARTCHAR alphatonos
ENCODING 940
SWIDTH 731 0
DWIDTH 9 0
BBX 8 10 1 0
BITMAP
18
08
00
33
5B
CE
CC
CE
CE
73
ENDCHAR
STARTCHAR epsilontonos
ENCODING 941
SWIDTH 542 0
DWIDTH 7 0
BBX 5 10 1 0
BITMAP
30
30
00
78
C0
C0
F8
C0
C0
78
ENDCHAR
STARTCHAR etatonos
ENCODING 942
SWIDTH 657 0
DWIDTH 8 0
BBX 6 12 1 -2
BITMAP
30
30
00
D8
EC
CC
CC
CC
CC
CC
0C
0C
ENDCHAR
STARTCHAR iotatonos
ENCODING 943
SWIDTH 384 0
DWIDTH 5 0
BBX 3 10 1 0
BITMAP
C0
C0
00
C0
C0
C0
C0
C0
C0
60
ENDCHAR
STARTCHAR upsilondieresistonos
ENCODING 944
SWIDTH 607 0
DWIDTH 7 0
BBX 6 10 0 0
BITMAP
30
A4
00
D8
CC
C4
C4
C4
CC
78
ENDCHAR
STARTCHAR alpha
ENCODING 945
SWIDTH 732 0
DWIDTH 9 0
BBX 8 7 1 0
BITMAP
33
5B
CE
CC
CE
CE
73
ENDCHAR
STARTCHAR beta
ENCODING 946
SWIDTH 643 0
DWIDTH 8 0
BBX 6 11 1 -2
BITMAP
70
D8
D8
D0
F8
CC
CC
CC
F8
C0
C0
ENDCHAR
STARTCHAR gamma
ENCODING 947
SWIDTH 613 0
DWIDTH 7 0
BBX 7 9 0 -2
BITMAP
C2
64
64
38
38
18
18
18
18
ENDCHAR
STARTCHAR delta
ENCODING 948
SWIDTH 622 0
DWIDTH 7 0
BBX 5 9 1 0
BITMAP
70
C0
E0
70
D8
D8
D8
D8
70
ENDCHAR
STARTCHAR epsilon
ENCODING 949
SWIDTH 542 0
DWIDTH 7 0
BBX 5 7 1 0
BITMAP
78
C0
C0
F8
C0
C0
78
ENDCHAR
STARTCHAR zeta
ENCODING 950
SWIDTH 632 0
DWIDTH 8 0
BBX 8 11 0 -2
BITMAP
86
7C
30
30
60
60
60
60
3E
01
0E
ENDCHAR
STARTCHAR eta
ENCODING 951
SWIDTH 657 0
DWIDTH 8 0
BBX 6 9 1 -2
BITMAP
D8
EC
CC
CC
CC
CC
CC
0C
0C
ENDCHAR
STARTCHAR theta
ENCODING 952
SWIDTH 631 0
DWIDTH 8 0
BBX 6 9 1 0
BITMAP
78
CC
CC
CC
FC
CC
CC
CC
78
ENDCHAR
STARTCHAR iota
ENCODING 953
SWIDTH 384 0
DWIDTH 5 0
BBX 3 7 1 0
BITMAP
C0
C0
C0
C0
C0
C0
60
ENDCHAR
STARTCHAR kappa
ENCODING 954
SWIDTH 598 0
DWIDTH 7 0
BBX 6 7 1 0
BITMAP
CC
D8
D0
F0
F0
D8
CC
ENDCHAR
STARTCHAR lambda
ENCODING 955
SWIDTH 628 0
DWIDTH 8 0
BBX 7 9 0 0
BITMAP
E0
30
30
18
38
28
4C
4C
86
ENDCHAR
STARTCHAR uni03BC
ENCODING 956
SWIDTH 692 0
DWIDTH 8 0
BBX 6 9 1 -2
BITMAP
CC
CC
CC
CC
CC
DC
EC
C0
C0
ENDCHAR
STARTCHAR nu
ENCODING 957
SWIDTH 589 0
DWIDTH 7 0
BBX 6 7 0 0
BITMAP
CC
CC
6C
6C
68
68
30
ENDCHAR
STARTCHAR xi
ENCODING 958
SWIDTH 584 0
DWIDTH 7 0
BBX 7 11 0 -2
BITMAP
8C
78
30
30
1C
70
60
60
3C
02
1C
ENDCHAR
STARTCHAR omicron
ENCODING 959
SWIDTH 639 0
DWIDTH 8 0
BBX 6 7 1 0
BITMAP
78
CC
CC
CC
CC
CC
78
ENDCHAR
STARTCHAR pi
ENCODING 960
SWIDTH 791 0
DWIDTH 10 0
BBX 8 7 1 0
BITMAP
FF
66
66
66
66
66
66
ENDCHAR
STARTCHAR rho
ENCODING 961
SWIDTH 631 0
DWIDTH 8 0
BBX 6 9 1 -2
BITMAP
78
CC
CC
CC
CC
D8
F0
C0
C0
ENDCHAR
STARTCHAR sigma1
ENCODING 962
SWIDTH 589 0
DWIDTH 7 0
BBX 6 9 1 -2
BITMAP
38
60
C0
C0
C0
C0
78
04
38
ENDCHAR
STARTCHAR sigma
ENCODING 963
SWIDTH 701 0
DWIDTH 8 0
BBX 7 7 1 0
BITMAP
7E
CC
CC
CC
CC
CC
78
ENDCHAR
STARTCHAR tau
ENCODING 964
SWIDTH 554 0
DWIDTH 7 0
BBX 6 7 0 0
BITMAP
FC
30
30
30
30
30
30
ENDCHAR
STARTCHAR upsilon
ENCODING 965
SWIDTH 607 0
DWIDTH 7 0
BBX 6 7 0 0
BITMAP
D8
CC
C4
C4
C4
CC
78
ENDCHAR
STARTCHAR phi
ENCODING 966
SWIDTH 795 0
DWIDTH 10 0
BBX 8 11 1 -2
BITMAP
18
18
7E
DB
DB
DB
DB
DB
7E
18
18
ENDCHAR
STARTCHAR chi
ENCODING 967
SWIDTH 588 0
DWIDTH 7 0
BBX 7 9 0 -2
BITMAP
C2
64
68
38
10
38
2C
4C
86
ENDCHAR
STARTCHAR psi
ENCODING 968
SWIDTH 814 0
DWIDTH 10 0
BBX 8 10 1 -2
BITMAP
18
DB
DB
DB
DB
DB
DB
7E
18
18
ENDCHAR
STARTCHAR omega
ENCODING 969
SWIDTH 921 0
DWIDTH 11 0
BBX 8 7 1 0
BITMAP
66
DB
DB
DB
DB
DB
66
ENDCHAR
STARTCHAR iotadieresis
ENCODING 970
SWIDTH 384 0
DWIDTH 5 0
BBX 3 9 1 0
BITMAP
A0
00
C0
C0
C0
C0
C0
C0
60
ENDCHAR
STARTCHAR upsilondieresis
ENCODING 971
SWIDTH 607 0
DWIDTH 7 0
BBX 6 9 0 0
BITMAP
28
00
D8
CC
C4
C4
C4
CC
78
ENDCHAR
STARTCHAR omicrontonos
ENCODING 972
SWIDTH 638 0
DWIDTH 8 0
BBX 6 10 1 0
BITMAP
30
30
00
78
CC
CC
CC
CC
CC
78
ENDCHAR
STARTCHAR upsilontonos
ENCODING 973
SWIDTH 607 0
DWIDTH 7 0
BBX 6 10 0 0
BITMAP
30
30
00
D8
CC
C4
C4
C4
CC
78
ENDCHAR
STARTCHAR omegatonos
ENCODING 974
SWIDTH 921 0
DWIDTH 11 0
BBX 8 10 1 0
BITMAP
0C
08
00
66
DB
DB
DB
DB
DB
66
ENDCHAR
STARTCHAR uni0401
ENCODING 1025
SWIDTH 600 0
DWIDTH 7 0
BBX 5 11 1 0
BITMAP
50
00
F8
C0
C0
C0
F0
C0
C0
C0
F8
ENDCHAR
STARTCHAR uni0402
ENCODING 1026
SWIDTH 820 0
DWIDTH 10 0
BBX 10 9 0 0
BITMAP
FF00
1800
1800
1B80
1CC0
18C0
18C0
18C0
1B80
ENDCHAR
STARTCHAR uni0403
ENCODING 1027
SWIDTH 528 0
DWIDTH 6 0
BBX 5 12 1 0
BITMAP
30
60
00
F8
C0
C0
C0
C0
C0
C0
C0
C0
ENDCHAR
STARTCHAR uni0404
ENCODING 1028
SWIDTH 606 0
DWIDTH 7 0
BBX 5 9 1 0
BITMAP
38
60
C0
C0
F0
C0
C0
60
38
ENDCHAR
STARTCHAR uni0405
ENCODING 1029
SWIDTH 570 0
DWIDTH 7 0
BBX 5 9 1 0
BITMAP
78
C0
C0
E0
70
38
18
18
F0
ENDCHAR
STARTCHAR uni0406
ENCODING 1030
SWIDTH 332 0
DWIDTH 4 0
BBX 2 9 1 0
BITMAP
C0
C0
C0
C0
C0
C0
C0
C0
C0
ENDCHAR
STARTCHAR uni0407
ENCODING 1031
SWIDTH 331 0
DWIDTH 4 0
BBX 3 11 1 0
BITMAP
A0
00
C0
C0
C0
C0
C0
C0
C0
C0
C0
ENDCHAR
STARTCHAR uni0408
ENCODING 1032
SWIDTH 417 0
DWIDTH 5 0
BBX 5 11 -1 -2
BITMAP
18
18
18
18
18
18
18
18
18
18
F0
ENDCHAR
STARTCHAR uni0409
ENCODING 1033
SWIDTH 1010 0
DWIDTH 12 0
BBX 11 9 0 0
BITMAP
3F00
3300
3300
3300
33C0
3360
3360
6360
C3C0
ENDCHAR
STARTCHAR uni040A
ENCODING 1034
SWIDTH 1041 0
DWIDTH 13 0
BBX 11 9 1 0
BITMAP
C600
C600
C600
C600
FFC0
C660
C660
C660
C7C0
ENDCHAR
STARTCHAR uni040B
ENCODING 1035
SWIDTH 807 0
DWIDTH 10 0
BBX 9 9 0 0
BITMAP
FC00
3000
3000
3700
3980
3180
3180
3180
3180
ENDCHAR
STARTCHAR uni040C
ENCODING 1036
SWIDTH 640 0
DWIDTH 8 0
BBX 7 12 1 0
BITMAP
04
08
00
C6
C8
C8
D0
F0
D8
CC
CC
C6
ENDCHAR
STARTCHAR uni040E
ENCODING 1038
SWIDTH 690 0
DWIDTH 8 0
BBX 7 12 0 0
BITMAP
28
38
00
C2
C4
64
68
70
30
20
20
60
ENDCHAR
STARTCHAR uni040F
ENCODING 1039
SWIDTH 780 0
DWIDTH 9 0
BBX 6 11 1 -2
BITMAP
CC
CC
CC
CC
CC
CC
CC
CC
FC
30
30
ENDCHAR
STARTCHAR uni0410
ENCODING 1040
SWIDTH 735 0
DWIDTH 9 0
BBX 6 9 1 0
BITMAP
30
30
58
58
58
78
8C
8C
8C
ENDCHAR
STARTCHAR uni0411
ENCODING 1041
SWIDTH 624 0
DWIDTH 7 0
BBX 5 9 1 0
BITMAP
F0
C0
C0
C0
F0
D8
D8
D8
F0
ENDCHAR
STARTCHAR uni0412
ENCODING 1042
SWIDTH 629 0
DWIDTH 8 0
BBX 6 9 1 0
BITMAP
F8
CC
CC
CC
F8
CC
CC
CC
F8
ENDCHAR
STARTCHAR uni0413
ENCODING 1043
SWIDTH 528 0
DWIDTH 6 0
BBX 5 9 1 0
BITMAP
F8
C0
C0
C0
C0
C0
C0
C0
C0
ENDCHAR
STARTCHAR uni0414
ENCODING 1044
SWIDTH 811 0
DWIDTH 10 0
BBX 9 11 0 -2
BITMAP
3F00
3300
3300
3300
3300
3300
6300
6300
FF80
C180
C180
ENDCHAR
STARTCHAR uni0415
ENCODING 1045
SWIDTH 601 0
DWIDTH 7 0
BBX 5 9 1 0
BITMAP
F8
C0
C0
C0
F0
C0
C0
C0
F8
ENDCHAR
STARTCHAR uni0416
ENCODING 1046
SWIDTH 907 0
DWIDTH 11 0
BBX 10 9 0 0
BITMAP
CCC0
4C80
2D00
2D00
3F00
6D80
6D80
CCC0
CCC0
ENDCHAR
STARTCHAR uni0417
ENCODING 1047
SWIDTH 571 0
DWIDTH 7 0
BBX 5 9 1 0
BITMAP
F0
18
18
18
70
18
18
18
F0
ENDCHAR
STARTCHAR uni0418
ENCODING 1048
SWIDTH 786 0
DWIDTH 9 0
BBX 7 9 1 0
BITMAP
C6
CE
CE
D6
D6
D6
E6
E6
C6
ENDCHAR
STARTCHAR uni0419
ENCODING 1049
SWIDTH 786 0
DWIDTH 9 0
BBX 7 12 1 0
BITMAP
24
38
00
C6
CE
CE
D6
D6
D6
E6
E6
C6
ENDCHAR
STARTCHAR uni041A
ENCODING 1050
SWIDTH 640 0
DWIDTH 8 0
BBX 7 9 1 0
BITMAP
C6
C8
C8
D0
F0
D8
CC
CC
C6
ENDCHAR
STARTCHAR uni041B
ENCODING 1051
SWIDTH 728 0
DWIDTH 9 0
BBX 8 9 0 0
BITMAP
3F
33
33
33
33
33
33
63
C3
ENDCHAR
STARTCHAR uni041C
ENCODING 1052
SWIDTH 908 0
DWIDTH 11 0
BBX 9 9 1 0
BITMAP
C180
E380
E380
B580
B580
B580
9980
9980
8180
ENDCHAR
STARTCHAR uni041D
ENCODING 1053
SWIDTH 779 0
DWIDTH 9 0
BBX 6 9 1 0
BITMAP
CC
CC
CC
CC
FC
CC
CC
CC
CC
ENDCHAR
STARTCHAR uni041E
ENCODING 1054
SWIDTH 823 0
DWIDTH 10 0
BBX 6 9 1 0
BITMAP
78
CC
CC
CC
CC
CC
CC
CC
78
ENDCHAR
STARTCHAR uni041F
ENCODING 1055
SWIDTH 780 0
DWIDTH 9 0
BBX 7 9 1 0
BITMAP
FE
C6
C6
C6
C6
C6
C6
C6
C6
ENDCHAR
STARTCHAR uni0420
ENCODING 1056
SWIDTH 612 0
DWIDTH 7 0
BBX 6 9 1 0
BITMAP
F8
CC
CC
CC
CC
F8
C0
C0
C0
ENDCHAR
STARTCHAR uni0421
ENCODING 1057
SWIDTH 711 0
DWIDTH 9 0
BBX 6 9 1 0
BITMAP
3C
60
C0
C0
C0
C0
C0
60
3C
ENDCHAR
STARTCHAR uni0422
ENCODING 1058
SWIDTH 689 0
DWIDTH 8 0
BBX 6 9 0 0
BITMAP
FC
30
30
30
30
30
30
30
30
ENDCHAR
STARTCHAR uni0423
ENCODING 1059
SWIDTH 690 0
DWIDTH 8 0
BBX 7 9 0 0
BITMAP
C2
C4
64
68
70
30
20
20
60
ENDCHAR
STARTCHAR uni0424
ENCODING 1060
SWIDTH 769 0
DWIDTH 9 0
BBX 8 9 0 0
BITMAP
18
7E
DB
DB
DB
DB
DB
7E
18
ENDCHAR
STARTCHAR uni0425
ENCODING 1061
SWIDTH 666 0
DWIDTH 8 0
BBX 6 9 1 0
BITMAP
C4
C4
68
70
30
38
58
8C
8C
ENDCHAR
STARTCHAR uni0426
ENCODING 1062
SWIDTH 810 0
DWIDTH 10 0
BBX 8 11 1 -2
BITMAP
C6
C6
C6
C6
C6
C6
C6
C6
FF
03
03
ENDCHAR
STARTCHAR uni0427
ENCODING 1063
SWIDTH 689 0
DWIDTH 8 0
BBX 6 9 1 0
BITMAP
CC
CC
CC
CC
DC
6C
0C
0C
0C
ENDCHAR
STARTCHAR uni0428
ENCODING 1064
SWIDTH 980 0
DWIDTH 12 0
BBX 10 9 1 0
BITMAP
CCC0
CCC0
CCC0
CCC0
CCC0
CCC0
CCC0
CCC0
FFC0
ENDCHAR
STARTCHAR uni0429
ENCODING 1065
SWIDTH 1011 0
DWIDTH 12 0
BBX 11 11 1 -2
BITMAP
CCC0
CCC0
CCC0
CCC0
CCC0
CCC0
CCC0
CCC0
FFE0
0060
0060
ENDCHAR
STARTCHAR uni042A
ENCODING 1066
SWIDTH 727 0
DWIDTH 9 0
BBX 8 9 0 0
BITMAP
F0
30
30
30
3E
33
33
33
3E
ENDCHAR
STARTCHAR uni042B
ENCODING 1067
SWIDTH 894 0
DWIDTH 11 0
BBX 9 9 1 0
BITMAP
C180
C180
C180
C180
F980
CD80
CD80
CD80
F980
ENDCHAR
STARTCHAR uni042C
ENCODING 1068
SWIDTH 626 0
DWIDTH 8 0
BBX 6 9 1 0
BITMAP
C0
C0
C0
C0
F8
CC
CC
CC
F8
ENDCHAR
STARTCHAR uni042D
ENCODING 1069
SWIDTH 606 0
DWIDTH 7 0
BBX 6 9 0 0
BITMAP
F0
18
0C
0C
7C
0C
0C
18
F0
ENDCHAR
STARTCHAR uni042E
ENCODING 1070
SWIDTH 1031 0
DWIDTH 12 0
BBX 10 9 1 0
BITMAP
C700
CD80
D8C0
D8C0
F8C0
D8C0
D8C0
CD80
C700
ENDCHAR
STARTCHAR uni042F
ENCODING 1071
SWIDTH 664 0
DWIDTH 8 0
BBX 7 9 0 0
BITMAP
3E
66
66
66
3E
36
66
66
C6
ENDCHAR
STARTCHAR uni0430
ENCODING 1072
SWIDTH 587 0
DWIDTH 7 0
BBX 7 7 1 0
BITMAP
F8
0C
0C
7C
CC
CC
7E
ENDCHAR
STARTCHAR uni0431
ENCODING 1073
SWIDTH 633 0
DWIDTH 8 0
BBX 6 10 1 0
BITMAP
04
78
C0
F8
CC
CC
CC
CC
CC
78
ENDCHAR
STARTCHAR uni0432
ENCODING 1074
SWIDTH 594 0
DWIDTH 7 0
BBX 5 7 1 0
BITMAP
F0
D8
D8
F0
D8
D8
F0
ENDCHAR
STARTCHAR uni0433
ENCODING 1075
SWIDTH 512 0
DWIDTH 6 0
BBX 5 7 1 0
BITMAP
F8
C0
C0
C0
C0
C0
C0
ENDCHAR
STARTCHAR uni0434
ENCODING 1076
SWIDTH 710 0
DWIDTH 9 0
BBX 8 8 0 -1
BITMAP
3E
36
36
36
66
66
FF
C3
ENDCHAR
STARTCHAR uni0435
ENCODING 1077
SWIDTH 585 0
DWIDTH 7 0
BBX 6 7 1 0
BITMAP
78
CC
CC
FC
C0
C0
7C
ENDCHAR
STARTCHAR uni0436
ENCODING 1078
SWIDTH 780 0
DWIDTH 9 0
BBX 8 7 0 0
BITMAP
99
5A
3C
5A
DB
DB
DB
ENDCHAR
STARTCHAR uni0437
ENCODING 1079
SWIDTH 506 0
DWIDTH 6 0
BBX 5 7 0 0
BITMAP
F0
18
18
70
18
18
F0
ENDCHAR
STARTCHAR uni0438
ENCODING 1080
SWIDTH 674 0
DWIDTH 8 0
BBX 6 7 1 0
BITMAP
CC
DC
DC
EC
EC
EC
CC
ENDCHAR
STARTCHAR uni0439
ENCODING 1081
SWIDTH 674 0
DWIDTH 8 0
BBX 6 10 1 0
BITMAP
48
38
00
CC
DC
DC
EC
EC
EC
CC
ENDCHAR
STARTCHAR uni043A
ENCODING 1082
SWIDTH 578 0
DWIDTH 7 0
BBX 6 7 1 0
BITMAP
C4
C8
D0
F0
D8
D8
CC
ENDCHAR
STARTCHAR uni043B
ENCODING 1083
SWIDTH 622 0
DWIDTH 7 0
BBX 6 7 0 0
BITMAP
7C
6C
6C
6C
6C
6C
CC
ENDCHAR
STARTCHAR uni043C
ENCODING 1084
SWIDTH 750 0
DWIDTH 9 0
BBX 8 7 0 0
BITMAP
C3
C7
E7
AB
BB
93
93
ENDCHAR
STARTCHAR uni043D
ENCODING 1085
SWIDTH 662 0
DWIDTH 8 0
BBX 6 7 1 0
BITMAP
CC
CC
CC
FC
CC
CC
CC
ENDCHAR
STARTCHAR uni043E
ENCODING 1086
SWIDTH 639 0
DWIDTH 8 0
BBX 6 7 1 0
BITMAP
78
CC
CC
CC
CC
CC
78
ENDCHAR
STARTCHAR uni043F
ENCODING 1087
SWIDTH 662 0
DWIDTH 8 0
BBX 6 7 1 0
BITMAP
FC
CC
CC
CC
CC
CC
CC
ENDCHAR
STARTCHAR uni0440
ENCODING 1088
SWIDTH 663 0
DWIDTH 8 0
BBX 6 9 1 -2
BITMAP
F8
CC
CC
CC
CC
CC
F8
C0
C0
ENDCHAR
STARTCHAR uni0441
ENCODING 1089
SWIDTH 532 0
DWIDTH 6 0
BBX 4 7 1 0
BITMAP
70
C0
C0
C0
C0
C0
70
ENDCHAR
STARTCHAR uni0442
ENCODING 1090
SWIDTH 494 0
DWIDTH 6 0
BBX 6 7 0 0
BITMAP
FC
30
30
30
30
30
30
ENDCHAR
STARTCHAR uni0443
ENCODING 1091
SWIDTH 582 0
DWIDTH 7 0
BBX 6 9 0 -2
BITMAP
C4
C4
68
68
38
38
10
30
E0
ENDCHAR
STARTCHAR uni0444
ENCODING 1092
SWIDTH 867 0
DWIDTH 10 0
BBX 8 11 1 -2
BITMAP
18
18
7E
DB
DB
DB
DB
DB
7E
18
18
ENDCHAR
STARTCHAR uni0445
ENCODING 1093
SWIDTH 590 0
DWIDTH 7 0
BBX 6 7 0 0
BITMAP
C4
68
70
30
38
58
8C
ENDCHAR
STARTCHAR uni0446
ENCODING 1094
SWIDTH 698 0
DWIDTH 8 0
BBX 7 8 1 -1
BITMAP
CC
CC
CC
CC
CC
CC
FE
06
ENDCHAR
STARTCHAR uni0447
ENCODING 1095
SWIDTH 588 0
DWIDTH 7 0
BBX 5 7 1 0
BITMAP
D8
D8
D8
D8
78
18
18
ENDCHAR
STARTCHAR uni0448
ENCODING 1096
SWIDTH 915 0
DWIDTH 12 0
BBX 10 7 1 0
BITMAP
CCC0
CCC0
CCC0
CCC0
CCC0
CCC0
FFC0
ENDCHAR
STARTCHAR uni0449
ENCODING 1097
SWIDTH 951 0
DWIDTH 12 0
BBX 11 8 1 -1
BITMAP
CCC0
CCC0
CCC0
CCC0
CCC0
CCC0
FFE0
0060
ENDCHAR
STARTCHAR uni044A
ENCODING 1098
SWIDTH 602 0
DWIDTH 7 0
BBX 6 7 0 0
BITMAP
E0
60
60
78
6C
6C
78
ENDCHAR
STARTCHAR uni044B
ENCODING 1099
SWIDTH 814 0
DWIDTH 10 0
BBX 8 7 1 0
BITMAP
C3
C3
F3
DB
DB
DB
F3
ENDCHAR
STARTCHAR uni044C
ENCODING 1100
SWIDTH 560 0
DWIDTH 7 0
BBX 5 7 1 0
BITMAP
C0
C0
F0
D8
D8
D8
F0
ENDCHAR
STARTCHAR uni044D
ENCODING 1101
SWIDTH 539 0
DWIDTH 6 0
BBX 5 7 0 0
BITMAP
F0
18
18
78
18
18
F0
ENDCHAR
STARTCHAR uni044E
ENCODING 1102
SWIDTH 874 0
DWIDTH 11 0
BBX 9 7 1 0
BITMAP
CF00
D980
D980
F980
D980
D980
CF00
ENDCHAR
STARTCHAR uni044F
ENCODING 1103
SWIDTH 567 0
DWIDTH 7 0
BBX 6 7 0 0
BITMAP
3C
6C
6C
3C
6C
6C
CC
ENDCHAR
STARTCHAR uni0451
ENCODING 1105
SWIDTH 585 0
DWIDTH 7 0
BBX 6 9 1 0
BITMAP
50
00
78
CC
CC
FC
C0
C0
7C
ENDCHAR
STARTCHAR uni0452
ENCODING 1106
SWIDTH 656 0
DWIDTH 8 0
BBX 7 11 0 -2
BITMAP
60
60
F8
60
6C
76
66
66
66
06
0C
ENDCHAR
STARTCHAR uni0453
ENCODING 1107
SWIDTH 512 0
DWIDTH 6 0
BBX 5 10 1 0
BITMAP
18
30
00
F8
C0
C0
C0
C0
C0
C0
ENDCHAR
STARTCHAR uni0454
ENCODING 1108
SWIDTH 539 0
DWIDTH 6 0
BBX 5 7 1 0
BITMAP
78
C0
C0
E0
C0
C0
78
ENDCHAR
STARTCHAR uni0455
ENCODING 1109
SWIDTH 564 0
DWIDTH 7 0
BBX 5 7 1 0
BITMAP
78
C0
E0
70
38
18
F0
ENDCHAR
STARTCHAR uni0456
ENCODING 1110
SWIDTH 325 0
DWIDTH 4 0
BBX 2 9 1 0
BITMAP
C0
00
C0
C0
C0
C0
C0
C0
C0
ENDCHAR
STARTCHAR uni0457
ENCODING 1111
SWIDTH 325 0
DWIDTH 4 0
BBX 3 9 1 0
BITMAP
A0
00
C0
C0
C0
C0
C0
C0
C0
ENDCHAR
STARTCHAR uni0458
ENCODING 1112
SWIDTH 333 0
DWIDTH 4 0
BBX 4 11 -1 -2
BITMAP
30
00
30
30
30
30
30
30
30
30
E0
ENDCHAR
STARTCHAR uni0459
ENCODING 1113
SWIDTH 862 0
DWIDTH 10 0
BBX 9 7 0 0
BITMAP
7C00
6C00
6C00
6F00
6D80
6D80
CF00
ENDCHAR
STARTCHAR uni045A
ENCODING 1114
SWIDTH 882 0
DWIDTH 11 0
BBX 9 7 1 0
BITMAP
CC00
CC00
CC00
FF00
CD80
CD80
CF00
ENDCHAR
STARTCHAR uni045B
ENCODING 1115
SWIDTH 656 0
DWIDTH 8 0
BBX 7 9 0 0
BITMAP
60
60
F8
60
6C
76
66
66
66
ENDCHAR
STARTCHAR uni045C
ENCODING 1116
SWIDTH 578 0
DWIDTH 7 0
BBX 6 10 1 0
BITMAP
18
30
00
C4
C8
D0
F0
D8
D8
CC
ENDCHAR
STARTCHAR uni045E
ENCODING 1118
SWIDTH 582 0
DWIDTH 7 0
BBX 6 12 0 -2
BITMAP
48
30
00
C4
C4
68
68
38
38
10
30
E0
ENDCHAR
STARTCHAR uni045F
ENCODING 1119
SWIDTH 662 0
DWIDTH 8 0
BBX 6 8 1 -1
BITMAP
CC
CC
CC
CC
CC
CC
FC
30
ENDCHAR
STARTCHAR uni048A
ENCODING 1162
SWIDTH 638 0
DWIDTH 8 0
BBX 3 2 3 8
BITMAP
60
C0
ENDCHAR
STARTCHAR uni048B
ENCODING 1163
SWIDTH 638 0
DWIDTH 8 0
BBX 4 2 2 8
BITMAP
90
60
ENDCHAR
STARTCHAR uni0490
ENCODING 1168
SWIDTH 528 0
DWIDTH 6 0
BBX 5 11 1 0
BITMAP
18
18
F8
C0
C0
C0
C0
C0
C0
C0
C0
ENDCHAR
STARTCHAR uni0491
ENCODING 1169
SWIDTH 512 0
DWIDTH 6 0
BBX 5 8 1 0
BITMAP
18
F8
C0
C0
C0
C0
C0
C0
ENDCHAR
ENDFONT
